<?xml version="1.0" encoding="UTF-8"?>
<svg id="Layer_1" xmlns="http://www.w3.org/2000/svg" version="1.1" viewBox="0 0 512 512">
  <!-- Generator: Adobe Illustrator 29.6.0, SVG Export Plug-In . SVG Version: 2.1.1 Build 207)  -->
  <defs>
    <style>
      .st0 {
        fill: #231f20;
      }

      .st1 {
        fill: #fff;
      }
    </style>
  </defs>
  <rect class="st0" width="512" height="512"/>
  <g>
    <path class="st1" d="M238.6,339.8c0,.6.7.2,0,0"/>
    <path class="st1" d="M217.6,340.1c-.9,0-2.1.2-3.3.4,1.1-.1,2.2-.2,3.3-.4"/>
    <path class="st1" d="M208.7,341.4c-.2.3,2.9-.4,5.7-.9-.2,0-.4,0-.5,0-2.6.2-5,.6-5.1.8"/>
    <path class="st1" d="M268.4,339.1c0,0-.1,0-.2,0-3.6,0-.7.7.2,0"/>
    <path class="st1" d="M253.1,170.8s1-.4,2.4-.3c8,.3,9.8,6.8,10.3,8.5.4,1.4,3.9,1,5.3,2.2,4.2,3.6,8.1,5.3,13.1,4.4,8.3-1.3,11.5-6.8,13.3-9.7,1.8-2.8,5.2-3.7,4.5-4.9-.6-1-5.8-2.5-15.9,2.4-1.1.5-7.4,3.8-7.7,3.3-.8-1.5.5-3.5,4.5-5.7,4.3-2.4,9.6-3.8,8.9-4.6-1.2-1.3-7.2-4.4-14-1.8-5.6,2.1-6.6,5-7.1,4.4-1-1.2-.6-3.2.9-4.8,4.7-4.8,5.9-5.6,5.4-6.4-.5-.7-2.7-.8-4.9-.4-2,.4-4.9,2.5-6.1,3.6-1.6,1.5-4.6,3.8-5.2,3.2-1.6-1.4,0-4.1,3.4-8.6.8-1,1.5-2.6.6-2.5,0,0-12.2-.1-11.2,11.2.1,1.2-1.1,3.3-2.8,4.5.5.3,2.4,2,2.4,2"/>
    <path class="st1" d="M240.6,171.6s0-1.5,0-1.6c-2.2-1.7-2.1-1.7-3.9-2.9-1.3-.9-2.5-1.7-3.7-2.5-.5.9-1,2.2-1.7,3.2,1.8.8,3.2,1.4,5,2.1,2.3.9,3.1,1.3,4.3,1.7"/>
    <path class="st1" d="M238.6,165.2c2.4,1.8,5,4.1,6.5,5.5.6.6.9,1.5,1,2.7,0,.5-.4,2.5-.4,2.5,0,0-2.5-.9-3-1-2.2-.7-4.3-1.5-6.4-2.3.4,1.2,2.3,3.5,4.8,5.4-.5.2-.9.4-1.2.4-3.1-.9-6.3-1.6-7.6-1.9-8.5-2.1-12,0-13.5,1.6-.5.6-1.3,1.7-1.7,3.7-.1.9,0,2.2.3,3.3-5.3.2-10.5.3-11.6-4.1-.2-.9,1.3-3.2,6-6.1-.3-.3-3.1-.1-3.2-.1-2.6-1-5.5-5.1-5.8-7.1,0-.1,0-.3,0-.4-2.2-1.2-3.8-3.6-3.8-5.3s.6-1.2,3.4-.4c1,.3,6.4-1.6,6.5-4.1-.6-1.5-5.8-4.5-5.9-4.5-21.4,7-29,21.4-24.5,25.2-1.3-.1,10.6-9.9,9.4-8.5-7.2,8.5-7.8,17.8-6.9,23.9.3,1.8,2.4,6.7,3.2,7.1.2.1,0-6.6,2.6-13.2,1.7-4.1,5.3-7.9,5.2-7.6-6.4,26.9,6.3,30.1,6.4,30.1,0,0,2-5.9,8.2-13.2,3.5-4.2,8.9-8.1,18.1-11.7,11.7-4.2,19.6-4.8,23.1-6.2,1-.4,2.5-.8,3.2-4.5.4-2.1.8-2.5,1-3-4.1-4.4-11.1-6.5-13.2-6.4"/>
    <path class="st1" d="M232.3,161.1c.1-.7,0-2.5-.2-3-.8-1.8-2.6-3-3.9-3.2.1-1,0-1.5-.3-2l-.7-.8c-1.9-2.2-2.5-2.9-3.8-3.8-.3-.3-.8-.4-1.2-.3-.1,0-.2,0-.3,0,0-.3-.2-.5-.3-.7-1.1-1.5-3.7-4.6-6-5.1-.3,0-.6,0-.7,0,0,.1.3,2.8-.2,4.7,0,0-2.4,7.2-2.6,7.8-1.6,6.2-5.7,8.7-8.5,8.7-.7,0-2.6-.7-2.6-.3,0,.6,2.1,2.9,4,3.5,6.3,2,12.2-8,12.9-7.5.3.2-.7,2-1,2.7,0,0-3.4,4.4-5,5.9-1.5,1.5-4.3,1.8-6.9.7,1.1,1.8,2.9,4,4,4.4,4.2.5,6-.7,7-1.8,1.1-1.1,7.4-8.7,7.6-8.3.3,1-5.6,9.1-6.3,9.7-.6.5-1.2.9-1.9,1.3.2.4.9.7,1.4.7,1,.2,4.1-.7,5-1.3,1.3-.9,9.3-4.2,10.7-12.1"/>
    <path class="st1" d="M317.4,207.7c-3.1-2.2-9.8-4.4-9.7-4.4.7-.6,4.9-.3,9.1,1.1,10.3,3.4,13.7,6.5,13.4,4.8-.1-.8-4.8-4.7-8.5-7.2-8.8-5.9-20.8-7.7-28.7-6.8-20.2,2.5-30.7,16.4-34.6,24.3-1.4,2.9-2.5,6.3-3.6,10.3-2.1-2.2-4.1-4.6-5-8.5-.8,3-1.9,5.6-2.1,5.9-.3.6-3.5-.6-4.4-1-1-.5-3.8-2.5-3.9-2.2-1.5,3.7-4.7,8.5-5.9,8.8-1.2.3-7.5-5.2-9.7-6.7-.5-.4-1,.9-1.2,1.5-1.1,3.1-1,11.4-2.1,11.5-.7,0-5.3-1.1-7.3-2.4-3.4-2.2-6.1-6.8-6.1-6.6,0,1.4-1.5,5.8-2.4,7.3-.9,1.5-4.7,5.2-6.6,6,0,.2,0,.3.1.5,1.5,6.5,5.8,14.8,12.7,23.1,1.6,2,4.6,6.8,7.8,12,2.1,6.5,7.6,16.6,9.5,20,.9,2.9,1.6,4.4,1.6,4.4,0,0,1.5,6.5,2.6,16.9,0,0,.6,16.1-5.3,15.6,0,0,0,0,0,0-19-2.4-21.5,3.7-21.6,3.9l.3.2s3.2-2.6,13.8-1.9c.4,0,.9,0,1.3,0,1.3,0,2.6.1,3.3.3-1,.2-2.9.2-4.8.3-2.5,0-5.4.2-7.3.5-6.1.9-7.5,4.1-7.5,4.1l.8-.3s3.3-1.1,6-1.2c1.8,0,4.1,0,6.4,0,2.9,0,5.7,0,7.4-.1.9,0,1.9-.2,3.1-.4,1.5-.2,3.3-.4,5.3-.6h0s0,0,0,0c.6,0,1.2,0,1.8-.1.1,0,.3,0,.4,0,3.7,0,7.5,2,7.6,2l.4.2-.2-.5c0,0-1.4-4.2-6-5.6-1.8-.9-2.7-.6-2.7-1.8,0-.1,0-.3,0-.5,0-2.6,1.7-13.9,1.7-14.1.2-3.4,4.6-1.4,4.6-1.4,0,0,0-1-1.3-2.2-1.4-1.2-3.1-1.1-3.1-1.1-.5-5.7-1.5-12.8-1.6-14.5,1.7-3.5,0-10.9-.1-12.3,0,0,0-.1,0-.2h0c0-.7,0-1.2-.1-1.4-2.2-3.1-3.6-6-4.5-8.4,0,0,0,0,0,0,14.4,18,19.2,23.9,24.6,26.5,0,1.7,5.8,7.7,6,9.3,0,0-4.1,1.4-3.2,4.7,0,0,1-1,1.3-1.2,1.2-.7,2.9-1.7,4.4,1,.9,1.6,5.5,9.4,6.8,13.1.5,1.6-.2,2.8-1.2,3.6-.1,0-.2,0-.3,0-7.1,0-9,6.1-9.1,6.2v.5c-.1,0,.3-.2.3-.2,0,0,4.1-2.2,7.9-2,2.8.1,5.2.5,7.1.7,1.1.2,2.1.3,3,.4,1.7.1,4.5.1,7.3.1,2.2,0,4.5,0,6.3,0,2.8.1,6.9.3,6.9.3h.5s-.3-.4-.3-.4c-.9-1-3.6-1.9-7.7-2.7-1.8-.3-4.7-.4-7.1-.5-1.9,0-3.8-.1-4.8-.3.7-.2,2-.3,3.3-.3.4,0,.9,0,1.3,0,10.4-.7,13.6,1.9,13.6,1.9l.3-.2c-.1-.3-2.5-6.3-20.5-4.1-1.1-.2-15.5-28.5-18.2-33.8.4-.6,0-2.7,0-2.7,0,0-2.1-9.5-3-16,.3-.2.6-.5.9-.8,1.3.2,2.3.5,2.3.7,3.5,2.5,6.9,2.3,8.6,2-1-1.1-2.8-3-4.2-4.5l-1.9-1.8s3.2.8,3.6.9c6.8,1.9,9.9,1.4,11.2,1,0,0-.2-.1-.2-.2-1.1-1.1-3-2.8-5.1-3.7l-2.5-1.2h2.8c5.5-.1,8.5-1.7,9.7-2.6-1.6-.6-5.2-1.9-11.8-1.8-1.6,0-3.1.2-4.5.4-1.6.7-3.7,1.1-4.8,1.2-6.6.7-14-2.2-18.9-6.4-4.9-4.1-8.9-9.2-10.3-17.2-1.2-6.4,2.7-12,7.4-16.2-4.2,4.6-6.1,11.2-4.3,17,1.6,5.8,5.5,10.9,10.3,14.5,4.8,3.6,10.7,5.8,16.6,5.5.7,0,3.2-.1.8-1.6-2.6-1.6-5.4-3.2-7.8-5.3-5.2-4.8-7.9-10.8-6.5-10.2,2,.9,4,3.3,4.5,3.9,1,1.1,2,2.2,3.1,3.1,2.3,1.8,5,2.9,7.6,2.3,1.1-.2,2.1-.8,3.1-1.4,0,0-.1-.2-.2-.3-.5-.5-1.1-1.1-1.6-1.6-2.3-2.1-4.6-4.1-7-6.2-.6-.6-2.7-2.6-2.6-2.8,3.7.5,5.1,1.8,6.3,2.5,3.1,1.8,3.8.2,3.7,0-.3-.6-8.6-9.2-8.4-10,.9.5,10.3,9,10.7,10,.5,1.5-2.1,3.3-3.6,3,.9.7,1.6,1,2.5,1.8.6.5,1.2,1.1,1.8,1.6,3.6,3-2.3,5.6-4.1,6-.6.1-1.2.2-1.9.2.6.4,4.5,3.4,4.9,3.8.1.1.2.3.3.4,2.5-2.5,7.6-6.6,15.1-2.7,4.9,2.5,5.3,10.2,5.6,10.5.3.3,3.4-2.5,3.5-7.6,0-1.2-.1-11-11.8-12.4-2.8-.3,3.5-2,8.5-.4,6.1,1.8,8.7,6.6,8.5,12.1-.3,6.6-2,11.9-1.8,12,.2.2,1.2-.8,2.1-1.5,3.5-2.9,5.1-9.4,5.3-12.5.4-8.3-4.3-13-6.6-14.5,0,0,8.6,3.4,8.1,14.8-.2,4.2-2.5,10.3-6.3,13.5-.6.5,3.6-1.3,6.1-3.5,3.8-3.4,10.2-14,.6-26.9-5.2-6.9-13.4-9.3-16.6-10,1.3-.3,2.7-.6,4.4-.7,9-.7,13.9,2.2,13.9,2.2-.5-2.6-6-7.4-13.6-7.4-3.7,0-6.7.6-9.1,1.4.4-.4.9-.7,1.4-1,19.8-9.4,31.7,13.6,31.9,13.4.2-.1,1.4-10.3-12.4-18.6-2-1.2,7.3.1,13.4,11.6,1.8,3.3,3,7.6,3.2,7.5.3-.2.8-4.3,0-8-3.4-14.9-17.6-21.6-27.1-22.6-1.6-.2-3.1-.2-4.4-.2,10.4-3.1,28.7-3.6,36.8,22.7,3.7,12,.7,24,1.1,23.3,0,0,4.1-4.5,5.8-9.9,1.7-5.3,9.8-28.4-14.8-45.7M249.9,253.8c0-.1,0,0,0,0,0,0,0,0,0,0"/>
    <path class="st1" d="M261.8,175.3c-1.7-1.9-4.1-3.1-7.7-3-.6,0-1.8,2.9-1.9,3.8,0,1.3-.9,3.3-3.4,4.5-4.1,1.9-29,3.4-42.9,20.9-6.6,8.4-9.2,18.4-9.3,28,0,2.1,0,5,2.1,6,1.6.8,6.6-11.5,7.2-12.3.8-.9,5.7,6.2,8.7,8.6.9.8,2.8,1.7,2.9,1.1,0-1.3.5-3.6,1.1-5.3,1-3.2,3.8-7.7,4.9-6.4.8.9,8.8,7.4,9.3,7.1,1.4-.8,2.6-3.5,3.1-4.5,1.1-2.1,1.8-4.3,2.1-5,.2-.6,3.2,2.1,5.3,3.7,1.6,1.2,3.1,1.7,3.2,1.5.7-.7,1.8-4.7,2.8-7.7,0-2.6.5-5.8,1.6-9.6.6-2.2,7.3-15.2,8-16.2,3.7-5.4,4.6-8,4.6-10.5-.2-1.5-.2-3-1.8-4.8M256.4,177.8c-.7,0-1.3-.6-1.3-1.3s.6-1.3,1.3-1.3,1.3.6,1.3,1.3-.6,1.3-1.3,1.3"/>
    <path class="st1" d="M212.7,144.7c-12-17.1-14-28.1-4.2-48.6,2.2-4.6,12.2-12.8-14.2-17.6-3-.5-9.5-.9-12.2.5-.8.4,7.6,1,15.3,3,8,2.1,11.9,4.2,11.2,5.4-.7,1.2-5.9.8-14.1-1-4.6-1-12-3.4-13.8-6-.7-1-1.5-1.5-2,1.9-.2,1.2-.3,3.5-.4,4.8-2.3,31.2,11.8,52.3,24.6,63.1.4.4.8.7,1.3,1,.4.3,3.4,2.6,5.6,4,.4-1,3.3-8.1,3-10.5M193.2,132.1c-2.6-3.9-4.6-8-6.3-12.4-1.7-4.4-2.6-9-3.2-13.6-.5-4.6-.6-9.2-.2-13.8.7,4.5,1.5,9,2.4,13.4,1,4.4,2,8.8,3.7,12.9,1.6,4.2,3.5,8.3,5.6,12.2,2.1,3.9,4.4,7.9,7.4,11.3-3.8-2.6-6.9-6.3-9.4-10.1"/>
    <path class="st1" d="M196.7,66s-2,10.4-1.8,10.5c.4,0,6.1-14.3,6.1-14.3l-4.6.7s4-20.1,3.6-20.1c-.5-.1-8.2,24-8.2,24l4.9-.8Z"/>
    <path class="st1" d="M206.7,75.8l1.6-1s.9-.6,1.9-1.4c1.1-.9,2.4-2.2,3.5-3.5,1.1-1.3,2.2-2.7,2.9-3.8.7-1.1,1-1.9,1-1.9l.6-1.5-1.6,1s-.9.6-1.9,1.4c-1.1.9-2.4,2.2-3.5,3.5-1.1,1.3-2.2,2.6-2.9,3.8-.7,1.1-1,1.9-1,1.9l-.7,1.5Z"/>
    <path class="st1" d="M205.3,69.1l.7-.8s.7-.9,1.6-2.2c.9-1.4,1.9-3.2,2.7-4.9.8-1.8,1.6-3.6,2-5.1.4-1.4.6-2.4.6-2.4l.2-1-.7.8s-.7.9-1.6,2.2c-.9,1.4-1.9,3.2-2.7,4.9-.8,1.8-1.6,3.6-2,5.1-.4,1.4-.6,2.4-.6,2.4l-.2,1Z"/>
    <path class="st1" d="M185.3,65.6l.3-1s.3-1,.5-2.4c.3-1.5.4-3.5.4-5.4,0-1.9,0-3.8-.3-5.4-.2-1.5-.5-2.4-.5-2.5l-.3-1-.3,1s-.3,1-.5,2.4c-.2,1.5-.4,3.5-.4,5.4,0,1.9.1,3.8.3,5.4.2,1.5.5,2.4.5,2.5l.3,1Z"/>
    <path class="st1" d="M295.8,417.5c-1.1-5.5-8.7-17.5-23.3-17.5s-24.3,11.5-24.2,23.5c0,2.4,0,4,0,6.5h-5.7c-6.3,0-12-5.7-12-12.6,0-15.6,9.5-24.5,19.3-28.8,4.6-2.1,8.7-5.2,11.1-10.7.8-1.7,1.8-4.5,1.8-9s0-14.8,0-14.8c-2.1,0-7.7.2-10.1.1-10.4-.3-13.2-.6-13.2-.6v3.4s4.6.4,8.8.6v8.2c0,5.6,0,8.6,0,11.2,0,8.9-7.1,11.7-9.8,13-3.5,1.7-6.8,4-9.7,6.6-2.3,2.1-4.5,4.4-6.5,7.5-4.6,7.2-4.4,14.5-4.4,16.2.3,7.6,6.9,13.6,14.4,13.3.8,0,1.7,0,7.3,0,6.7,0,23-.1,23-.1v-20.9c0-2.2,2.3-9.1,9.6-9.1s9.5,5.6,9.5,9,0,22.8,0,22.8c0,23.9-7.9,29.1-22.8,31.4-.2,0-.5,0-.7,0-.8,0-1.6,0-2.3,0-13.1,0-24.6-6.5-32.1-15.9l-1.6,1.7c7.8,10,20,16.5,33.7,16.5s24.3-5.7,32.1-14.6c5.2-5.8,8.5-13.1,8.7-21.6.1-4.9,0-10.7-1-15.5"/>
    <path class="st1" d="M362,431.2v-23.9c0-7.3-5.2-15.2-12.7-17.8-.2,0-1.3-.4-1.6-.5,0,0-.1,0-.2,0h0c-4.9-1.4-13.1-1.9-18.8-2.6-8.2-1.1-17.1-3.2-16.6-11.3,0-1.7.7-2.8,1.3-3.7.8-1.2,2.1-2.2,2.1-2.2,3.9,3,9.1,5.1,14.7,5.5,11.9.8,27.1-8.7,27.1-26.2s0-20,0-20c.4-.2,1.9-1.1,4.7-3v-4.2c-27.7,19.4-56,26.1-56,26.1-.3,11,4.6,17.1,7.8,20.1-2.2,1.6-7.7,5.6-7.7,13.7s6.8,14.6,12.9,15.7c0,0-.4.1-.7.3,0,0-11.9,4.8-12.3,18.9h-6.4v2.3h16v-2.3h-6.7c0-4.8,2.1-12.4,11.6-16.4,3.5-1.5,10.9-1.4,16-1,3.4.3,5.4,1.8,6.3,2.4,3.4,2.6,4.7,7.1,4.7,9.7v20.4h-6.4v2.4h27.4v-2.4h-6.5ZM320.6,350.7c0-2.5.8-4.6,3.6-5.7.8-.3,8.2-3.3,10.4-4.3,4.1-2.1,8.3,1.2,8.3,4.8v15.3c0,4.4-4.1,10.2-11.1,10.4-4.8.1-11.1-3.7-11.1-11.3v-9.1Z"/>
    <path class="st1" d="M206.1,431.2v-24.5c0-10.9-8.5-22.5-21.6-22-15.5.6-20.1,13.6-20.1,13.6v-3.7c0-2.4,1.9-7.1,5.6-9.7,3-2.1,6.8-2.7,11.9-2.9,16.4-.4,23.6-9.2,24.1-19.1.1-2.6-.5-5.6-1.5-8-5-11.7-18.7-5.2-25-3.4-.7.2-1.3.3-1.9.5-7.8,1.7-9-4-9-5.7v-13.1s-6.7-3.6-8.9-4.9c-2.3-1.4-8.7-5.4-9.8-6.2v4.2l4.3,2.7v11.9c0,9.7,8.9,15.5,15.9,15.1,4.3-.2,7.1-.6,12.8-2.5,7.6-2.6,16.4-3.6,17.3,5.6.3,3.2-2.8,7.1-6.2,8.7-12.6,5.9-25.8,1.7-32.9,6.1-6.4,4-11.2,10-11.2,18.5v38.8h-6.5v2.4h27.3v-2.4h-6.3v-26.8c2.8-8.7,8.5-16.2,16.1-15.8,7.6.4,11.1,6.8,11.1,11.1v31.5h-6.5v2.4h27.5v-2.4h-6.5Z"/>
  </g>
</svg>