<?xml version="1.0" encoding="UTF-8"?>
<svg id="Layer_1" xmlns="http://www.w3.org/2000/svg" version="1.1" viewBox="0 0 595.28 256.11">
  <!-- Generator: Adobe Illustrator 29.6.0, SVG Export Plug-In . SVG Version: 2.1.1 Build 207)  -->
  <defs>
    <style>
      .st0 {
        fill: #2a7ca8;
      }
    </style>
  </defs>
  <g>
    <path class="st0" d="M318.34,135.13c-12.09-10.6-28-10.6-28-10.6-20.57.64-37.54,15.69-43.05,31.39-5.51,15.69-3.18,33.93-3.18,33.93,1.06,4.45,19.3,13.36,19.3,13.36-1.33-10.71-1.48-20.36-1.48-20.36h51.75v25.66c5.51,4.03,20.15,6.15,20.15,6.15v-50.8c-2.12-17.92-15.48-28.74-15.48-28.74ZM263.46,164.29s3.02-24.04,27.52-24.02c21.47.8,22.43,24.02,22.43,24.02h-49.95Z"/>
    <path class="st0" d="M358.64,134.49s-1.27-7.85-12.09-7.85c-6.15,0-9.76,7.85-9.76,7.85v80.17s14-.64,21.85-6.36v-40.72s1.91-24.18,24.39-25.88v-15.06s-14.85.42-24.39,7.85Z"/>
    <path class="st0" d="M385.79,108.41s8.7-6.15,21.85-6.57v69.78s1.7,26.3,26.3,29.06v14s-39.66,1.7-48.15-41.78v-64.48Z"/>
    <path class="st0" d="M410.6,126.65v15.27h11.88s1.8-7.73,6.83-11.31c0,0-1.96-3.53-4.71-3.96s-14,0-14,0Z"/>
    <path class="st0" d="M474.02,149.76l9.76-11.45s-10.82-12.94-31.81-12.94-27.15,17.18-27.15,24.39,7.42,19.72,25.24,25.03c17.82,5.3,18.88,11.45,18.88,15.06s-3.82,12.51-15.69,11.45v13.37s32.87,0,33.3-25.88c.21-11.24-2.76-19.51-23.12-26.94-16.54-5.3-20.15-8.48-20.57-14.85-.42-6.36,16.97-15.27,31.18,2.76Z"/>
  </g>
  <g>
    <path class="st0" d="M215.06,118.8s-31.82,48.35-37.55,89.71c0,0-1.06,6.15,4.67,7.21,5.73,1.06,6.73-8.3,7.21-12.09,6.32-49.84,19.62-73.91,26.2-84.58.6-.97.05-1.26-.53-.25Z"/>
    <path class="st0" d="M217.06,119.64s-.03-.05-.05-.02c-1.45,3.68-12.41,32.88-13.2,77.23,0,0-.64,8.27,3.18,8.7,3.82.42,4.45-5.73,4.45-9.97s-3.58-41.69,5.61-75.94Z"/>
    <path class="st0" d="M214.56,117.5c-3.53,2.26-25.61,17.08-48.93,49.49,0,0-3.82,6.1-.85,9.18,2.97,3.08,5.94-1.27,7.85-4.14s18.25-33.47,41.98-54.46c.05-.04,0-.11-.06-.08Z"/>
    <path class="st0" d="M213.1,116.53s.03-.08-.02-.07c-3.26.72-22.37,5.29-38.22,16.01,0,0-12.51,8.27-15.48,11.13-2.97,2.86-2.01,5.62-.85,6.47,1.17.85,2.76,1.27,7.11-2.55,4.32-3.79,26.19-23.05,47.46-31Z"/>
    <path class="st0" d="M213.28,114.58s-21.45-.85-39.26,3.59c-17.82,4.44-29.16,8.79-29.91,12.61-.74,3.82,2.97,4.82,7.11,2.99,4.14-1.82,34.39-18.87,62.06-19.19Z"/>
    <path class="st0" d="M212.78,113.25s.06-.04.02-.05c-3.4-1.04-24.56-7.26-45.26-6.97-22.59.32-62.2,11.93-64.26,21.47-1.11,5.41,4.77,6.04,9.7,3.66,4.92-2.38,46.38-28.98,99.8-18.12Z"/>
    <path class="st0" d="M213.95,111.76s.09-.04.05-.06c-4.8-2.79-41.44-23.39-77.63-22.59-38.81.85-55.57,15.48-56.84,22.27-.42,3.39,1.48,8.54,10.23,4.08,8.73-4.44,49.53-35.84,124.19-3.69Z"/>
    <path class="st0" d="M215.35,109.89c-5.21-4.84-49.81-44.92-98.39-43.43,0,0-30.38-1.75-31.81,10.18,0,0-.16,6.04,8.27,5.25,8.41-.79,59.56-18.98,121.87,28.05.04.03.09-.02.06-.05Z"/>
    <path class="st0" d="M218.61,120.9s-.07-.06-.08-.02c-.49,2.15-2.88,14.9.77,44.52,0,0,1.27,8.64,4.24,8.54,2.97-.11,1.48-4.67,0-10.18-1.48-5.49-4.96-15.08-4.93-42.86Z"/>
    <path class="st0" d="M215.96,108.85s.1.02.08-.03c-2.35-4.28-18.85-32.76-51.24-50.67,0,0-21.42-11.88-33.72-13.79,0,0-7.11-1.17-8.38,5.3,0,0-1.17,4.56,8.06,7.64,9.19,3.06,54.67,9.6,85.21,51.56Z"/>
    <path class="st0" d="M217.19,108.04c.01.05-.07.08-.09.03-1.1-2.94-6.59-17.04-14.24-28.19-8.59-12.51-14.53-19.19-13.15-23.22.64-1.91,3.82-2.01,8.59,6.47,4.7,8.35,16.33,32.72,18.89,44.92Z"/>
    <path class="st0" d="M218.45,106.49c0,.08-.11.09-.12.01-.47-2.66-2.22-12.44-3.27-17.77-1.22-6.2-2.07-10.98-.53-11.21,1.54-.24,2.41.78,3.21,10.85.66,8.39.72,15.86.72,18.12Z"/>
    <path class="st0" d="M219.72,119.45s-.04,0,.06.72c.33,2.35.85,10,1.5,14,.77,4.77,2.58,4.88,2.58,4.88,0,0,2.27.23-.53-6.37-2.06-4.85-3.28-10.5-3.49-12.5-.08-.73-.12-.73-.12-.73Z"/>
    <path class="st0" d="M220.94,119.45s0-.21.34.79c.57,1.69,2.44,5.42,3.97,7.78,2,3.08,3.32,5.51,2.47,6.36-.85.85-2.44-1.7-4.14-5.67-1.23-2.89-2.01-6.48-2.44-8.21-.26-1.05-.21-1.05-.21-1.05Z"/>
    <path class="st0" d="M223.12,91.03s-1.44-.49-1.84,2.8c-.29,2.39-.57,6.46-.42,12.51.02.73.04,1.49.08,2.28,0,0-.01.66.36-2.21.41-3.13,1.51-8.66,2.24-10.92,1.19-3.69.32-4.49-.42-4.47Z"/>
    <path class="st0" d="M225.25,113.15s.35-.16.96-.44c2.19-1.01,7.71-3.53,12.44-5.52,6.04-2.55,10.98-4.93,10.98-4.93,0,0,3.26-1.83,4.06,0,.8,1.83-1.43,2.55-2.94,3.18-1.4.59-19.35,6-24.49,7.44-.42.12-1.41.45-.99.27Z"/>
    <path class="st0" d="M225.25,111.4s.27-.24.72-.64c1.81-1.61,6.55-5.8,8.15-7.08,1.99-1.59,3.1-2.7,3.1-2.7,0,0,1.75-1.43,2.7-.4.95,1.03-.4,1.92-1.11,2.55-.72.63-3.1,2.14-3.1,2.14,0,0-5.93,3.29-9.67,5.62-.28.17-1.12.79-.79.5Z"/>
    <path class="st0" d="M226.54,115.07c-.09,0-.11-.13-.02-.15,2.32-.47,9.97-2.04,13.03-2.65,3.63-.72,6.1-.95,6.18.87.08,1.83-3.56,1.75-5.48,1.91-1.65.14-11.06.04-13.71,0Z"/>
    <path class="st0" d="M225.25,116.36s.34.02.99.06c1.47.09,4.55.32,8.91.77,2.86.3,5.49.98,5.49.98,0,0,2.31.39,1.75,2.38-.56,1.99-4.14,0-4.14,0,0,0-6.07-2.48-12.12-3.98-.29-.07-1.14-.21-.88-.21Z"/>
    <path class="st0" d="M224.46,117.53s.26.08.69.22c1.47.46,4.91,1.55,6.57,2.17,2.15.8,4.77,2.31,4.77,2.31,0,0,1.91.76,1.35,2.37-.56,1.61-2.86-.06-2.86-.06,0,0-5.67-4.77-9.83-6.7-.24-.11-.94-.34-.7-.3Z"/>
    <path class="st0" d="M223.22,118.9s.25.15.66.41c1.28.8,4.16,2.66,6.26,4.35,2.78,2.23,3.72,2.94,3.72,2.94,0,0,1.68,1.03.73,2.23-.95,1.19-2.55-.87-2.55-.87,0,0-4.65-5.12-8.25-8.51-.2-.19-.86-.66-.58-.54Z"/>
    <path class="st0" d="M222.22,109.36s.12-.5.3-1.27c.48-1.98,1.4-5.75,1.94-7.35.74-2.23,1.54-2.94,2.57-2.7s.32,1.95-.4,3.4c-.63,1.27-2.71,4.2-3.94,6.81-.18.38-.65,1.79-.47,1.11Z"/>
    <path class="st0" d="M223.95,109.88c-.05.06-.14,0-.11-.07.94-1.74,3.82-7.02,4.55-7.95.87-1.11,1.59-2.02,2.47-1.65s1.11.95,0,2.93c-1.05,1.87-4.64,4.16-6.91,6.75Z"/>
    <path class="st0" d="M222.7,120.61c-.04-.08.06-.15.12-.08,1.15,1.24,4.79,5.15,6.23,6.47,1.72,1.58,2.03,1.71,2.55,2.68s-.59,2.48-1.46,2.4-3.03-3.34-3.03-3.34c0,0-3.36-6.09-4.4-8.13Z"/>
  </g>
</svg>