<?xml version="1.0" encoding="UTF-8"?>
<svg id="Layer_1" xmlns="http://www.w3.org/2000/svg" version="1.1" xmlns:xlink="http://www.w3.org/1999/xlink" viewBox="0 0 831.32 841.89">
  <!-- Generator: Adobe Illustrator 29.6.0, SVG Export Plug-In . SVG Version: 2.1.1 Build 207)  -->
  <defs>
    <style>
      .st0 {
        fill: url(#linear-gradient2);
      }

      .st1, .st2, .st3 {
        fill: #010101;
      }

      .st4 {
        fill: url(#linear-gradient10);
      }

      .st2 {
        font-size: 14.58px;
      }

      .st2, .st3 {
        font-family: Arial-Black, Arial;
        font-weight: 800;
      }

      .st5 {
        fill: url(#linear-gradient21);
      }

      .st6, .st7 {
        fill: #fff;
      }

      .st8 {
        fill: url(#linear-gradient1);
      }

      .st3 {
        font-size: 16.76px;
      }

      .st9 {
        fill: url(#linear-gradient9);
      }

      .st10 {
        fill: url(#linear-gradient18);
      }

      .st11 {
        fill: #231f20;
      }

      .st11, .st7, .st12, .st13, .st14, .st15, .st16, .st17, .st18 {
        fill-rule: evenodd;
      }

      .st19 {
        fill: url(#linear-gradient23);
      }

      .st20 {
        fill: url(#linear-gradient8);
      }

      .st21 {
        fill: url(#linear-gradient11);
      }

      .st22 {
        fill: url(#linear-gradient16);
      }

      .st23 {
        fill: url(#linear-gradient24);
      }

      .st24 {
        fill: url(#linear-gradient22);
      }

      .st12 {
        fill: url(#linear-gradient27);
      }

      .st13 {
        fill: url(#linear-gradient28);
      }

      .st25 {
        fill: url(#linear-gradient19);
      }

      .st26 {
        fill: url(#linear-gradient12);
      }

      .st27 {
        fill: url(#linear-gradient7);
      }

      .st28 {
        fill: url(#linear-gradient20);
      }

      .st29 {
        fill: url(#linear-gradient4);
      }

      .st30 {
        fill: url(#linear-gradient31);
      }

      .st31 {
        fill: url(#linear-gradient14);
      }

      .st32 {
        fill: url(#linear-gradient5);
      }

      .st14 {
        fill: #835128;
      }

      .st33 {
        fill: url(#linear-gradient3);
      }

      .st15 {
        fill: url(#linear-gradient30);
      }

      .st16 {
        fill: url(#linear-gradient29);
      }

      .st34 {
        fill: url(#linear-gradient25);
      }

      .st17 {
        fill: url(#linear-gradient26);
      }

      .st35 {
        fill: url(#linear-gradient15);
      }

      .st36 {
        fill: url(#linear-gradient17);
      }

      .st37 {
        fill: url(#linear-gradient6);
      }

      .st38 {
        fill: url(#linear-gradient13);
      }

      .st18 {
        fill: #caebfc;
      }

      .st39 {
        fill: url(#linear-gradient);
      }
    </style>
    <linearGradient id="linear-gradient" x1="62.83" y1="94.73" x2="568.72" y2="179.05" gradientUnits="userSpaceOnUse">
      <stop offset="0" stop-color="#9c6a24"/>
      <stop offset=".09" stop-color="#9f6e27"/>
      <stop offset=".19" stop-color="#a87b31"/>
      <stop offset=".3" stop-color="#b79041"/>
      <stop offset=".4" stop-color="#cdae58"/>
      <stop offset=".51" stop-color="#e9d475"/>
      <stop offset=".54" stop-color="#f3e280"/>
      <stop offset=".6" stop-color="#efdc7b"/>
      <stop offset=".68" stop-color="#e3cd6f"/>
      <stop offset=".77" stop-color="#d1b45a"/>
      <stop offset=".83" stop-color="#bf9c46"/>
      <stop offset=".88" stop-color="#b99440"/>
      <stop offset=".95" stop-color="#aa7f32"/>
      <stop offset="1" stop-color="#9c6a24"/>
    </linearGradient>
    <linearGradient id="linear-gradient1" x1="67.6" y1="66.11" x2="573.49" y2="150.43" xlink:href="#linear-gradient"/>
    <linearGradient id="linear-gradient2" x1="61.44" y1="103.05" x2="567.34" y2="187.36" xlink:href="#linear-gradient"/>
    <linearGradient id="linear-gradient3" x1="67.97" y1="63.91" x2="573.86" y2="148.22" xlink:href="#linear-gradient"/>
    <linearGradient id="linear-gradient4" x1="71.51" y1="42.65" x2="577.4" y2="126.97" xlink:href="#linear-gradient"/>
    <linearGradient id="linear-gradient5" x1="58.05" y1="123.4" x2="563.94" y2="207.71" xlink:href="#linear-gradient"/>
    <linearGradient id="linear-gradient6" x1="67.27" y1="68.06" x2="573.17" y2="152.38" xlink:href="#linear-gradient"/>
    <linearGradient id="linear-gradient7" x1="74.81" y1="22.86" x2="580.7" y2="107.17" xlink:href="#linear-gradient"/>
    <linearGradient id="linear-gradient8" x1="72.61" y1="36.04" x2="578.5" y2="120.35" xlink:href="#linear-gradient"/>
    <linearGradient id="linear-gradient9" x1="70.73" y1="47.3" x2="576.63" y2="131.62" xlink:href="#linear-gradient"/>
    <linearGradient id="linear-gradient10" x1="74.57" y1="24.31" x2="580.46" y2="108.62" xlink:href="#linear-gradient"/>
    <linearGradient id="linear-gradient11" x1="59.14" y1="116.89" x2="565.03" y2="201.2" xlink:href="#linear-gradient"/>
    <linearGradient id="linear-gradient12" x1="76.95" y1="9.99" x2="582.85" y2="94.31" xlink:href="#linear-gradient"/>
    <linearGradient id="linear-gradient13" x1="-1852.67" y1="763.42" x2="-1379.39" y2="842.3" gradientTransform="translate(-1267.93 201.38) rotate(177.83) scale(1.05 -.8) skewX(-3.52)" xlink:href="#linear-gradient"/>
    <linearGradient id="linear-gradient14" x1="-1848.2" y1="736.65" x2="-1374.93" y2="815.52" gradientTransform="translate(-1267.93 201.38) rotate(177.83) scale(1.05 -.8) skewX(-3.52)" xlink:href="#linear-gradient"/>
    <linearGradient id="linear-gradient15" x1="-1853.96" y1="771.2" x2="-1380.69" y2="850.08" gradientTransform="translate(-1267.93 201.38) rotate(177.83) scale(1.05 -.8) skewX(-3.52)" xlink:href="#linear-gradient"/>
    <linearGradient id="linear-gradient16" x1="-1847.86" y1="734.58" x2="-1374.59" y2="813.46" gradientTransform="translate(-1267.93 201.38) rotate(177.83) scale(1.05 -.8) skewX(-3.52)" xlink:href="#linear-gradient"/>
    <linearGradient id="linear-gradient17" x1="-1844.55" y1="714.7" x2="-1371.27" y2="793.58" gradientTransform="translate(-1267.93 201.38) rotate(177.83) scale(1.05 -.8) skewX(-3.52)" xlink:href="#linear-gradient"/>
    <linearGradient id="linear-gradient18" x1="-1857.14" y1="790.24" x2="-1383.86" y2="869.12" gradientTransform="translate(-1267.93 201.38) rotate(177.83) scale(1.05 -.8) skewX(-3.52)" xlink:href="#linear-gradient"/>
    <linearGradient id="linear-gradient19" x1="-1848.51" y1="738.47" x2="-1375.24" y2="817.35" gradientTransform="translate(-1267.93 201.38) rotate(177.83) scale(1.05 -.8) skewX(-3.52)" xlink:href="#linear-gradient"/>
    <linearGradient id="linear-gradient20" x1="-1841.46" y1="696.18" x2="-1368.19" y2="775.06" gradientTransform="translate(-1267.93 201.38) rotate(177.83) scale(1.05 -.8) skewX(-3.52)" xlink:href="#linear-gradient"/>
    <linearGradient id="linear-gradient21" x1="-1843.52" y1="708.51" x2="-1370.24" y2="787.39" gradientTransform="translate(-1267.93 201.38) rotate(177.83) scale(1.05 -.8) skewX(-3.52)" xlink:href="#linear-gradient"/>
    <linearGradient id="linear-gradient22" x1="-1845.27" y1="719.05" x2="-1372" y2="797.93" gradientTransform="translate(-1267.93 201.38) rotate(177.83) scale(1.05 -.8) skewX(-3.52)" xlink:href="#linear-gradient"/>
    <linearGradient id="linear-gradient23" x1="-1841.69" y1="697.54" x2="-1368.41" y2="776.42" gradientTransform="translate(-1267.93 201.38) rotate(177.83) scale(1.05 -.8) skewX(-3.52)" xlink:href="#linear-gradient"/>
    <linearGradient id="linear-gradient24" x1="-1856.12" y1="784.15" x2="-1382.85" y2="863.03" gradientTransform="translate(-1267.93 201.38) rotate(177.83) scale(1.05 -.8) skewX(-3.52)" xlink:href="#linear-gradient"/>
    <linearGradient id="linear-gradient25" x1="-1839.45" y1="684.15" x2="-1366.18" y2="763.02" gradientTransform="translate(-1267.93 201.38) rotate(177.83) scale(1.05 -.8) skewX(-3.52)" xlink:href="#linear-gradient"/>
    <linearGradient id="linear-gradient26" x1="386.02" y1="76.23" x2="860.31" y2="49.46" gradientTransform="translate(139.99 127.44) rotate(22.1)" xlink:href="#linear-gradient"/>
    <linearGradient id="linear-gradient27" x1="115.71" y1="747.87" x2="694.78" y2="443.02" xlink:href="#linear-gradient"/>
    <linearGradient id="linear-gradient28" x1="142.6" y1="798.95" x2="721.67" y2="494.1" xlink:href="#linear-gradient"/>
    <linearGradient id="linear-gradient29" x1="134.6" y1="783.75" x2="713.67" y2="478.9" xlink:href="#linear-gradient"/>
    <linearGradient id="linear-gradient30" x1="174.36" y1="859.27" x2="753.42" y2="554.42" xlink:href="#linear-gradient"/>
    <linearGradient id="linear-gradient31" x1="672.37" y1="523.51" x2="748.59" y2="513.43" gradientUnits="userSpaceOnUse">
      <stop offset="0" stop-color="#906321"/>
      <stop offset=".09" stop-color="#936723"/>
      <stop offset=".19" stop-color="#9d742c"/>
      <stop offset=".29" stop-color="#ae893a"/>
      <stop offset=".4" stop-color="#c6a74e"/>
      <stop offset=".5" stop-color="#e5cd67"/>
      <stop offset=".54" stop-color="#f4e074"/>
      <stop offset=".6" stop-color="#f0da70"/>
      <stop offset=".67" stop-color="#e4cb66"/>
      <stop offset=".75" stop-color="#d2b255"/>
      <stop offset=".83" stop-color="#bb9340"/>
      <stop offset=".88" stop-color="#b48b3b"/>
      <stop offset=".95" stop-color="#a1762d"/>
      <stop offset="1" stop-color="#906321"/>
    </linearGradient>
  </defs>
  <rect width="831.32" height="841.89"/>
  <g>
    <g>
      <path class="st39" d="M174.72,162.17c-.52-.8-.94-1.34-1.24-1.94-18.51-36.35-37-72.71-55.5-109.07-.17,0-.35,0-.52,0-3.05,2.33-6.03,4.76-9.18,6.94-1.99,1.37-2.3,2.51-.96,4.65,20.14,32.32,40.2,64.69,60.29,97.04,1.18,1.89,2.41,3.75,3.74,5.8,2.47-1.91,4.6-3.55,6.73-5.19-.16-.2-.33-.41-.49-.61-.9.75-1.81,1.51-2.86,2.39Z"/>
      <path class="st8" d="M498.85,83.76c5.06,1.65,10.21,3.05,15.33,4.53,2.61.76,5.23,1.5,8.31,2.38-.45-.76-.53-1.03-.71-1.18-8.23-7.03-16.48-14.04-24.71-21.07-1.34-1.14-2.18-.34-3.08.61-6.07,6.4-12.16,12.78-18.22,19.19-4.02,4.25-7.98,8.55-12.02,12.79-5.84,6.14-11.74,12.22-17.58,18.36-1.1,1.15-2.02,1.17-3.04-.03-.51-.6-1.1-1.12-1.64-1.69-15.71-16.75-31.41-33.51-47.14-50.25-2.62-2.78-2.67-2.74-5.42.02-22.78,22.94-45.55,45.88-68.33,68.81-.78.79-1.61,1.54-2.69,2.56-19.3-26.86-38.42-53.48-57.84-80.51-26.2,32.43-52.01,64.39-77.83,96.35.13.1.25.2.38.3.44-.41.89-.81,1.32-1.24,15.36-15.16,30.73-30.31,46.07-45.48,8.88-8.79,17.72-17.62,26.58-26.43,1.02-1.02,1.9-2.12,3.37-.42,8.74,10.1,17.54,20.15,26.32,30.22,8.95,10.26,17.92,20.51,26.84,30.81,1.31,1.52,2.25,1.54,3.86.25,23.23-18.64,46.53-37.19,69.76-55.83,1.63-1.31,2.74-1.25,4.32-.08,9.33,6.92,18.72,13.76,28.09,20.63,8.03,5.89,16.06,11.78,24.08,17.68,1.27.94,2.33,1.57,3.88.2,7.74-6.8,15.57-13.49,23.38-20.22,7.8-6.73,15.63-13.43,23.41-20.18,1.51-1.31,2.93-1.76,4.97-1.1Z"/>
      <path class="st0" d="M257.97,104.39c-2.68-2.46-2.71-2.43-5.29.14-17.2,17.14-34.4,34.28-51.59,51.43-.69.69-1.33,1.45-2.52,2.75,1.76,0,2.69.04,3.61,0,7.76-.33,15.51-.76,23.27-.94,2.27-.05,3.66-.81,4.9-2.7,7.93-12.04,15.96-24,23.96-35.98.48-.73,1.04-1.41,1.85-2.49.31,1.65.53,2.67.69,3.7,1.32,8.45,2.62,16.91,3.96,25.35.52,3.24.86,3.42,4.08,3.05,5.89-.68,11.79-1.33,17.68-2.01,6.04-.69,12.09-1.4,18.51-2.15-.45-.71-.55-.97-.73-1.14-14.13-13-28.26-26-42.4-38.99Z"/>
      <path class="st33" d="M239.84,59.56c-1.32-.24-1.81-.4-2.31-.42-6.02-.22-12.04-.33-18.05-.65-2.33-.13-3.61.79-4.83,2.71-9.32,14.77-18.75,29.47-28.15,44.19-.45.71-1,1.36-1.84,2.49-.46-1.35-.79-2.21-1.04-3.09-4.31-15.21-8.54-30.44-12.95-45.62-1.98-6.81-.14-5.92-7.71-5.86-5.03.04-10.06.33-15.96.54,11.89,21.06,23.35,41.36,35.07,62.13,19.43-18.98,38.4-37.5,57.78-56.42Z"/>
      <path class="st29" d="M372.8,63.79c-.96-.41-1.4-.77-1.86-.78-4.19-.09-8.38-.19-12.57-.1-.82.02-1.8.69-2.41,1.34-7.46,7.84-14.77,15.83-22.33,23.57-2.95,3.02-6.43,5.52-9.67,8.26.16-.17-.15-1.14-.39-2.13-2.24-9.43-4.5-18.86-6.66-28.31-.45-1.96-1.3-3.04-3.37-3.34-6.74-.96-13.46-2.05-20.19-3.06-.74-.11-1.52-.02-3.17-.02,10.3,18.49,20.22,36.33,30.32,54.47,17.63-16.82,34.83-33.24,52.31-49.91Z"/>
      <path class="st32" d="M118.9,108.22c-2.7-4.65-5.43-9.29-8.15-13.94-.38.07-.76.13-1.14.2-.07,3.7-.95,7.6-.08,11.06,5.47,21.76,11.33,43.42,17.02,65.12.51,1.95,1.27,2.76,3.47,2.26,6.89-1.57,13.82-2.97,20.75-4.38,2.25-.46,2.37-1.41,1.29-3.26-11.09-19-22.11-38.04-33.16-57.06Z"/>
      <path class="st37" d="M389.92,99.48c-1.58-1.54-2.66-1.36-4.17,0-12.37,11.03-24.79,22-37.19,33-1.57,1.4-3.07,2.88-5.06,4.75,1.12,0,1.55.06,1.96,0,6.12-.95,12.25-1.84,18.34-2.95,1.34-.25,2.79-1.05,3.77-2.02,6.92-6.9,13.73-13.91,20.59-20.88.4-.4.94-.66,1.58-1.11.39.8.74,1.39.98,2.02,1.83,4.91,3.76,9.78,5.41,14.75.78,2.35,2.06,3.11,4.44,2.96,4.44-.29,8.89-.34,13.33-.56,1.81-.09,3.61-.34,5.97-.57-.72-.9-.99-1.34-1.36-1.69-9.53-9.22-19.1-18.4-28.58-27.68Z"/>
      <path class="st27" d="M475.75,67.84c-4.49-.29-8.12-.46-11.74-.78-2.05-.18-3.18.62-4.05,2.47-3.99,8.44-8.1,16.84-12.19,25.24-.32.66-.78,1.25-1.41,2.23-.72-1.07-1.22-1.74-1.64-2.47-5.22-8.98-10.41-17.98-15.67-26.94-.55-.93-1.41-2.32-2.19-2.36-4.38-.23-8.77-.12-13.96-.12,10.42,13.99,20.33,27.31,30.56,41.03,10.83-12.84,21.33-25.29,32.29-38.3Z"/>
      <path class="st20" d="M520.67,105.3c-7.12-4.25-14.26-8.46-21.37-12.72-1.42-.85-2.25-.14-3.12.85-3.78,4.34-7.59,8.66-11.36,13.01-3.28,3.79-6.51,7.63-9.76,11.44,2.15-.18,3.99-1.05,5.92-1.36,5.64-.91,9.36-4.07,11.98-9.03,1.48-2.81,3.49-5.33,5.42-8.21.75.85,1.22,1.34,1.64,1.87,2.48,3.16,4.9,6.36,7.45,9.46.6.73,1.89,1.79,2.38,1.57,3.95-1.72,7.78-3.72,11.85-5.72-.56-.66-.73-1-1.01-1.16Z"/>
      <path class="st9" d="M209.58,57.31c-9.45-1.23-18.07-2.36-27.36-3.57,2.64,9.12,5.05,17.46,7.68,26.56,6.79-7.93,12.99-15.17,19.67-22.98Z"/>
      <path class="st4" d="M343.47,61.77c-5.52-.38-10.24-.7-15.68-1.08,2.41,5.05,4.49,9.39,6.83,14.3,3.08-4.6,5.78-8.64,8.85-13.23Z"/>
      <path class="st21" d="M250.49,141.22c-3.86,4.08-7.73,8.17-11.59,12.25.11.33.23.66.34.99,4.14,0,8.28.05,12.41-.06.48-.01,1.39-.99,1.34-1.44-.46-3.84-1.09-7.66-1.67-11.49-.28-.08-.56-.17-.84-.25Z"/>
      <path class="st26" d="M444.74,78.11c1.85-4.15,3.71-8.31,5.75-12.88-4.41,0-8.25,0-12.75,0,2.26,4.68,4.26,8.82,6.26,12.96.24-.02.49-.05.73-.07Z"/>
    </g>
    <g>
      <path class="st38" d="M645.34,794.43c.44-.62.8-1.04,1.05-1.5,14.94-27.96,29.86-55.92,44.79-83.88.17,0,.34-.01.51-.02,3.2,1.63,6.34,3.35,9.64,4.86,2.07.95,2.48,1.79,1.36,3.45-16.9,24.99-33.72,50.02-50.56,75.03-.99,1.46-2.04,2.9-3.16,4.49-2.6-1.34-4.84-2.49-7.07-3.64.14-.16.28-.32.43-.48.95.53,1.91,1.06,3.02,1.69Z"/>
      <path class="st31" d="M320.1,747.69c-4.82,1.43-9.76,2.66-14.65,3.97-2.5.67-5,1.32-7.95,2.09.37-.58.43-.79.59-.91,7.46-5.58,14.93-11.15,22.39-16.73,1.21-.91,2.11-.33,3.08.34,6.53,4.57,13.08,9.13,19.6,13.71,4.33,3.04,8.6,6.12,12.94,9.15,6.28,4.38,12.61,8.73,18.89,13.11,1.18.82,2.09.81,2.98-.13.45-.47.98-.88,1.46-1.33,13.94-13.15,27.86-26.31,41.81-39.44,2.32-2.18,2.38-2.16,5.32-.19,24.41,16.36,48.81,32.71,73.22,49.07.84.56,1.72,1.09,2.87,1.82,16.56-20.87,32.97-41.55,49.63-62.54,28.61,23.35,56.8,46.36,85,69.37-.12.08-.23.16-.35.24-.47-.29-.95-.58-1.4-.88-16.43-10.8-32.87-21.59-49.28-32.4-9.5-6.26-18.97-12.55-28.45-18.83-1.09-.72-2.05-1.52-3.35-.19-7.69,7.9-15.43,15.77-23.16,23.65-7.88,8.03-15.77,16.05-23.61,24.11-1.16,1.19-2.07,1.24-3.77.33-24.47-13.12-49-26.16-73.46-39.28-1.72-.92-2.8-.83-4.24.1-8.55,5.54-17.16,11.02-25.75,16.52-7.36,4.72-14.72,9.43-22.07,14.16-1.17.75-2.15,1.26-3.79.3-8.2-4.81-16.49-9.54-24.75-14.3-8.26-4.75-16.54-9.49-24.78-14.27-1.6-.93-3.04-1.21-4.98-.64Z"/>
      <path class="st35" d="M558.45,754.19c2.41-1.94,2.44-1.92,5.2-.09,18.41,12.22,36.82,24.43,55.23,36.65.74.49,1.43,1.04,2.72,1.97-1.72.07-2.63.13-3.55.13-7.65.04-15.3,0-22.93.16-2.24.04-3.67-.47-5.06-1.84-8.85-8.73-17.8-17.41-26.73-26.1-.54-.53-1.14-1.02-2.03-1.8-.16,1.25-.28,2.02-.35,2.8-.55,6.39-1.07,12.78-1.64,19.16-.22,2.45-.54,2.6-3.74,2.44-5.85-.29-11.69-.56-17.54-.85-6-.3-11.99-.6-18.37-.92.38-.55.45-.75.62-.88,12.71-10.28,25.43-20.56,38.16-30.82Z"/>
      <path class="st22" d="M572.27,719.89c1.27-.23,1.74-.37,2.23-.4,5.89-.39,11.79-.7,17.67-1.16,2.28-.18,3.62.46,4.98,1.85,10.47,10.73,21.03,21.41,31.58,32.1.51.51,1.1.98,2.03,1.8.33-1.03.58-1.69.75-2.35,2.88-11.57,5.68-23.15,8.65-34.7,1.33-5.18-.39-4.44,7.05-4.68,4.94-.16,9.91-.13,15.72-.19-9.8,16.24-19.24,31.89-28.91,47.9-20.77-13.51-41.04-26.69-61.75-40.17Z"/>
      <path class="st36" d="M442.09,728.02c.91-.35,1.31-.63,1.75-.65,4.11-.22,8.21-.45,12.34-.54.81-.02,1.83.45,2.49.92,8.02,5.6,15.91,11.32,24.03,16.85,3.16,2.16,6.8,3.9,10.23,5.83-.17-.12.05-.86.19-1.61,1.36-7.16,2.74-14.31,4.02-21.48.26-1.49,1.01-2.33,3.01-2.63,6.53-.97,13.03-2.04,19.56-3.05.72-.11,1.49-.07,3.12-.13-8.46,14.25-16.63,28-24.93,41.98-18.81-11.96-37.16-23.63-55.8-35.49Z"/>
      <path class="st10" d="M695.35,751.89c2.24-3.59,4.51-7.17,6.76-10.76.38.04.76.07,1.14.11.4,2.77,1.61,5.66,1.07,8.29-3.43,16.52-7.26,32.99-10.92,49.48-.33,1.48-1.01,2.11-3.2,1.82-6.91-.92-13.84-1.72-20.77-2.51-2.25-.26-2.45-.97-1.56-2.4,9.19-14.67,18.33-29.36,27.48-44.04Z"/>
      <path class="st25" d="M428.46,755.43c1.41-1.22,2.49-1.12,4.1-.16,13.13,7.81,26.3,15.58,39.45,23.37,1.67.99,3.27,2.05,5.4,3.38-1.1.04-1.52.1-1.93.07-6.09-.49-12.19-.92-18.27-1.53-1.34-.13-2.84-.68-3.88-1.38-7.41-4.92-14.72-9.93-22.08-14.89-.43-.29-.98-.46-1.65-.77-.31.62-.6,1.07-.78,1.55-1.36,3.75-2.82,7.48-4,11.26-.56,1.79-1.75,2.41-4.09,2.38-4.38-.06-8.76.07-13.14.08-1.78,0-3.58-.12-5.92-.21.63-.71.86-1.05,1.18-1.32,8.54-7.27,17.12-14.52,25.6-21.83Z"/>
      <path class="st28" d="M341.36,734.89c4.38-.38,7.93-.65,11.46-1.02,1.99-.21,3.18.35,4.2,1.7,4.67,6.19,9.45,12.33,14.21,18.48.37.48.88.91,1.58,1.62.61-.83,1.05-1.35,1.39-1.91,4.33-6.93,8.62-13.88,12.98-20.79.45-.72,1.18-1.79,1.94-1.85,4.28-.34,8.6-.41,13.7-.61-8.98,10.88-17.54,21.24-26.35,31.92-11.77-9.23-23.19-18.18-35.12-27.52Z"/>
      <path class="st5" d="M300.59,764.67c6.61-3.45,13.25-6.88,19.86-10.34,1.32-.69,2.2-.19,3.14.52,4.1,3.12,8.23,6.21,12.31,9.34,3.56,2.72,7.07,5.48,10.6,8.22-2.13-.05-4.01-.64-5.93-.8-5.62-.47-9.56-2.7-12.56-6.33-1.7-2.05-3.91-3.87-6.05-5.95-.66.67-1.08,1.05-1.44,1.46-2.15,2.46-4.25,4.95-6.47,7.38-.52.57-1.7,1.41-2.19,1.27-4.03-1.15-7.97-2.5-12.14-3.85.5-.52.63-.78.88-.91Z"/>
      <path class="st24" d="M601.77,717.08c9.17-1.28,17.53-2.44,26.55-3.7-1.78,6.94-3.41,13.28-5.18,20.2-7.37-5.7-14.1-10.89-21.36-16.51Z"/>
      <path class="st19" d="M470.71,725.41c5.38-.49,10-.91,15.3-1.39-1.92,3.88-3.57,7.21-5.43,10.98-3.43-3.34-6.45-6.27-9.87-9.59Z"/>
      <path class="st23" d="M569.07,781.54c4.16,2.92,8.31,5.84,12.47,8.75-.08.25-.17.5-.25.76-4.06.16-8.12.35-12.19.42-.48,0-1.46-.69-1.45-1.03.11-2.9.39-5.79.61-8.68.27-.07.53-.15.8-.22Z"/>
      <path class="st34" d="M372.73,741.44c-2.19-3.05-4.38-6.09-6.79-9.45,4.33-.17,8.1-.31,12.52-.48-1.8,3.59-3.4,6.77-5,9.96-.24,0-.48-.02-.73-.03Z"/>
    </g>
    <path class="st6" d="M117,389.17l44.17-108.35-36.81,1.88,13.76-32.23c-13.82-1.12-24.6-5.55-32.36-13.29-7.76-7.74-12.02-19.26-12.81-34.58l-.4-7.93,41.16-2.1.45,8.75c.38,7.48,2.61,13.16,6.68,17.07,4.07,3.9,11.13,5.6,21.18,5.09l28.7-1.46-10.53,27.13,36.81-1.88-13.47,32.22c12.41,3.94,23.26,9.78,32.57,17.53,9.3,7.75,16.72,18.39,22.26,31.9,5.53,13.52,8.85,31.04,9.94,52.54l-43.19,2.2c-.82-16.04-2.74-28.92-5.75-38.64-3.02-9.72-6.93-17.1-11.74-22.16-4.81-5.05-10.48-8.97-17.02-11.74l-30.72,75.87-42.9,2.19Z"/>
    <path class="st6" d="M163.53,557.92l8.82-24.82-3.53-26.1,7.55.78c5.95.62,10.52,2.55,13.73,5.79,3.21,3.24,5.52,6.9,6.95,10.97l27.44,2.85-2.29,22.01-27.44-2.85c-2.23,3.69-5.25,6.79-9.06,9.31-3.81,2.51-8.68,3.46-14.63,2.84l-7.55-.78ZM208.71,548l3.34-32.15c.99-9.49.4-17.58-1.76-24.28-2.16-6.69-4.99-13.2-8.49-19.53-3.5-6.32-6.49-12.45-8.96-18.38-2.47-5.93-3.24-13.35-2.31-22.27,1.37-13.23,7.11-23.18,17.2-29.83,10.09-6.66,22.99-9.17,38.69-7.54,16.47,1.71,28.54,6.75,36.23,15.1,7.68,8.36,10.86,18.94,9.53,31.74-.97,9.35-3.92,16.97-8.85,22.85-4.93,5.89-11.02,10.41-18.29,13.58s-14.81,5.37-22.64,6.59c1.94,5,3.14,10.98,3.57,17.93.43,6.95.28,14.02-.47,21.21l-2.96,28.48-33.85-3.51ZM233.63,461.62c6.92-1.32,12.66-3.88,17.21-7.7,4.56-3.81,7.19-9.1,7.89-15.86.49-4.75-.41-9.09-2.69-13.04-2.29-3.95-6.33-6.22-12.12-6.82-4.42-.46-8.64.41-12.64,2.61-4.01,2.2-6.35,6.61-7.04,13.23-.57,5.47.22,10.46,2.37,14.97,2.15,4.51,4.49,8.72,7.01,12.61Z"/>
    <path class="st6" d="M288.81,548.4c-.82-15.34-.79-28.44.1-39.28.89-10.84,2.64-19.95,5.25-27.32,2.61-7.37,6.06-13.41,10.34-18.11,4.28-4.7,9.34-8.57,15.19-11.62l-14.66-21.97,25.9-3.91,71.57,105.07-25.73,3.88-45.7-66.94c-4.78,1.8-8.85,5.2-12.22,10.2-3.37,5-5.23,10.6-5.55,16.82l2.52-.38c9.3-1.4,16.84-.46,22.62,2.84,5.77,3.3,9.21,8.59,10.31,15.89,1.26,8.36-.79,15.1-6.15,20.24-5.36,5.14-13.7,8.56-25.03,10.26l-28.76,4.34ZM311.5,528.92l2.86-.43c9.75-1.47,14.17-5.27,13.24-11.41-.41-2.75-1.7-4.59-3.84-5.51-2.15-.92-4.96-1.12-8.43-.6l-3.87.58c-.13,2.18-.21,5.06-.25,8.64-.04,3.58.06,6.48.28,8.72Z"/>
    <path class="st6" d="M400.32,509.17l-7.09-59.66c-.88-7.39-.42-13.89,1.36-19.5-4.98-1.61-9.23-4.44-12.75-8.49-3.52-4.05-5.77-10.25-6.77-18.62l-1.92-16.14,25.4-3.02,1.92,16.14c.77,6.52,3.01,11.1,6.72,13.75,2.93-1.89,6.3-3.48,10.12-4.76,3.82-1.28,8.21-2.22,13.16-2.8,14.17-1.68,24.94.51,32.32,6.57,7.38,6.07,11.79,15.19,13.24,27.36l7.05,59.33-25.57,3.04-6.95-58.52c-.75-6.3-2.51-11-5.27-14.09-2.76-3.08-6.97-4.3-12.61-3.63-6.22.74-10.23,3.09-12.04,7.05-1.81,3.96-2.37,8.82-1.68,14.58l6.93,58.36-25.57,3.04ZM505.81,469.36c-4.49.53-8.19-.13-11.1-1.99-2.91-1.86-5.23-4.17-6.96-6.94l-20.73,2.46-1.98-16.63,20.73-2.46c1.03-3.1,2.74-5.89,5.14-8.38,2.39-2.49,5.83-4,10.32-4.53l5.7-.68-2.38,19.79,6.95,18.68-5.7.68Z"/>
    <path class="st6" d="M266.75,345.92c4.32-25.69,9.23-47.34,14.72-64.95,5.48-17.61,11.76-32.03,18.82-43.25,7.06-11.23,15-19.94,23.82-26.13,8.82-6.19,18.63-10.72,29.44-13.59l-16.12-41.78,44.29,3.14,79.46,200.35-44.01-3.12-50.79-127.68c-8.57,1.21-16.57,5.33-24,12.34-7.44,7.02-12.57,15.61-15.41,25.77l4.31.31c15.91,1.13,28.04,5.49,36.36,13.08,8.32,7.59,12.05,17.62,11.16,30.11-1.01,14.29-6.91,24.69-17.68,31.2-10.77,6.51-25.84,9.08-45.21,7.7l-49.18-3.49ZM311.51,322.09l4.89.35c16.68,1.18,25.4-3.47,26.14-13.96.33-4.7-1.11-8.21-4.31-10.53-3.21-2.32-7.79-3.69-13.73-4.11l-6.62-.47c-1.03,3.57-2.23,8.3-3.61,14.2-1.38,5.9-2.31,10.75-2.77,14.53Z"/>
    <path class="st6" d="M472.59,309.93c2.3-33.11,5.85-61.17,10.63-84.18,4.78-23.01,10.95-42.07,18.51-57.18,7.56-15.11,16.55-27.14,26.97-36.08,10.42-8.95,22.3-15.9,35.64-20.88l-25.61-50.98,56.56-1.5,125.56,244.21-56.19,1.49-80.21-155.62c-10.71,2.6-20.35,8.81-28.91,18.62-8.56,9.82-14.01,21.35-16.35,34.58l5.51-.15c20.32-.54,36.23,3.49,47.73,12.08,11.49,8.59,17.46,20.86,17.88,36.79.48,18.25-5.7,32.17-18.55,41.75-12.85,9.59-31.64,14.71-56.37,15.37l-62.8,1.67ZM526.39,274.17l6.24-.17c21.3-.57,31.77-7.54,31.42-20.94-.16-6-2.42-10.28-6.77-12.82-4.36-2.54-10.33-3.71-17.92-3.51l-8.45.22c-.86,4.65-1.8,10.8-2.82,18.45-1.03,7.65-1.59,13.91-1.71,18.77Z"/>
    <g>
      <polygon class="st17" points="706.91 289.33 710.99 291.17 714.75 293.09 718.38 295.05 721.98 297.21 725.49 299.44 729.08 301.9 732.3 304.27 735.68 306.96 738.85 309.6 741.81 312.15 741.8 312.18 744.89 315.17 747.76 318.08 750.52 321.02 753.05 324.05 755.75 327.33 758.12 330.35 760.49 333.76 762.65 337.08 764.86 340.65 766.96 344.14 768.77 347.58 770.54 351.16 772.31 354.97 773.84 358.64 775.28 362.31 775.24 362.33 776.64 366.24 777.85 369.98 778.9 373.82 779.91 377.9 780.76 381.75 781.44 385.69 782.11 389.85 782.52 393.72 782.91 397.84 783.12 401.84 783.2 406.09 783.23 406.1 783.23 410.12 783 414.11 782.67 418.23 782.25 422.52 781.7 426.48 780.95 430.78 780.11 434.84 779.15 438.96 778.02 442.9 776.77 446.93 775.26 451.14 773.68 455.16 772.03 459.09 770.18 463.16 768.27 466.92 766.32 470.54 764.14 474.16 761.91 477.66 759.45 481.26 757.01 484.58 754.5 487.77 751.76 491.03 749.22 493.96 749.19 493.94 746.2 497.04 743.29 499.91 740.35 502.64 737.2 505.32 734.21 507.8 730.83 510.32 727.59 512.67 724.2 514.93 720.87 516.95 717.3 519.08 713.83 520.91 710.09 522.74 710.11 522.78 706.52 524.41 702.75 526.03 699.08 527.44 695.15 528.8 691.47 530.01 687.54 531.05 683.47 532.06 679.61 532.91 675.69 533.63 671.65 534.24 667.5 534.72 663.62 535.09 659.38 535.31 655.48 535.4 651.15 535.37 647.25 535.17 643.13 534.85 638.83 534.42 634.87 533.88 630.58 533.13 626.51 532.29 622.43 531.33 618.45 530.2 614.43 528.95 610.22 527.43 606.25 525.89 602.27 524.2 598.19 522.36 594.43 520.44 590.82 518.49 587.2 516.32 583.7 514.09 580.1 511.63 576.78 509.19 573.59 506.67 570.33 503.93 567.39 501.35 564.29 498.36 561.53 495.57 558.64 492.46 556.15 489.5 553.54 486.27 551.03 483.01 548.69 479.74 546.44 476.35 544.39 473.01 544.42 473.02 542.25 469.4 540.46 465.97 538.61 462.27 538.59 462.26 536.95 458.69 535.34 454.89 533.93 451.23 533.94 451.2 532.57 447.3 531.36 443.63 530.28 439.55 530.27 439.58 529.3 435.78 528.44 431.8 527.73 427.84 527.13 423.77 526.65 419.64 526.26 415.79 526.05 411.56 525.97 407.63 525.98 403.33 526.18 399.42 526.5 395.18 526.91 391.13 527.48 387.05 528.22 382.75 529.07 378.69 530.03 374.58 531.16 370.63 532.41 366.6 533.92 362.39 535.47 358.42 537.15 354.44 539 350.37 540.91 346.61 542.86 343 545.04 339.37 547.26 335.87 549.75 332.22 552.09 329.05 554.78 325.68 557.42 322.5 560 319.56 562.99 316.47 565.79 313.71 568.89 310.82 571.86 308.33 575.08 305.71 575.14 305.64 578.35 303.21 581.62 300.87 581.63 300.84 584.91 298.7 588.34 296.59 591.95 294.42 595.38 292.63 595.51 292.55 599.08 290.79 599.09 290.76 602.66 289.12 606.35 287.57 606.47 287.52 610.27 286.07 613.91 284.78 617.89 283.47 621.81 282.46 621.78 282.44 625.58 281.48 629.57 280.59 629.69 280.61 633.68 279.82 637.49 279.31 641.7 278.83 645.66 278.44 645.72 278.44 649.66 278.24 653.75 278.16 653.91 278.16 658.05 278.17 658.07 278.14 661.93 278.36 666.18 278.67 670.22 279.09 670.34 279.11 674.3 279.66 674.44 279.64 678.6 280.4 682.67 281.25 686.78 282.21 686.8 282.22 690.85 283.35 694.76 284.58 698.96 286.1 702.99 287.67 703.04 287.69 706.91 289.33"/>
      <polygon class="st11" points="769.24 433.8 769.33 433.58 770.45 430.57 770.5 430.39 771.47 427.28 771.57 427.03 772.39 423.98 772.47 423.73 773.13 420.65 773.18 420.54 773.76 417.37 773.78 417.15 774.11 413.97 774.12 413.79 774.4 410.62 774.37 410.41 774.51 407.29 774.52 407.09 774.46 403.89 774.47 403.64 774.28 400.47 774.27 400.27 773.91 397.11 773.92 396.94 773.52 393.73 773.48 393.52 772.83 390.33 772.82 390.2 772.1 387.01 772.04 386.82 771.19 383.68 771.13 383.53 770.17 380.41 770.16 380.14 769.03 377.08 768.99 376.9 767.79 373.78 767.69 373.61 766.31 370.54 766.26 370.42 764.81 367.33 764.72 367.16 763.16 364.12 763.04 363.94 761.32 360.89 761.23 360.79 759.42 357.8 759.35 357.71 757.4 354.76 757.29 354.63 755.27 351.71 755.22 351.59 753.05 348.75 752.95 348.61 750.67 345.76 750.61 345.67 748.26 342.91 748.1 342.82 745.61 340.1 745.52 340 742.94 337.31 742.85 337.21 740.13 334.56 740.03 334.49 737.24 331.94 737.15 331.84 734.25 329.34 734.12 329.25 731.12 326.82 731.04 326.78 727.99 324.39 727.84 324.3 724.6 322.02 724.54 321.96 721.33 319.72 721.2 319.64 717.87 317.55 717.74 317.46 714.24 315.4 714.17 315.34 710.6 313.34 710.5 313.3 706.88 311.41 706.78 311.37 703.07 309.57 702.96 309.5 699.15 307.73 699.04 307.68 695.19 306.08 695.05 306.02 691.14 304.57 691 304.51 687.1 303.12 686.94 303.09 683.04 301.86 682.93 301.81 679.01 300.7 678.87 300.64 674.88 299.61 674.8 299.58 670.88 298.69 670.77 298.65 666.93 297.89 666.75 297.85 662.83 297.22 662.72 297.17 658.86 296.63 658.7 296.6 654.83 296.16 654.71 296.14 650.87 295.87 650.74 295.84 646.93 295.65 646.81 295.63 642.97 295.59 642.85 295.57 639.14 295.61 638.95 295.6 635.23 295.72 635.1 295.73 631.45 295.99 631.29 295.99 627.65 296.41 627.52 296.42 623.89 296.88 623.76 296.89 620.27 297.47 620.08 297.45 616.61 298.16 616.47 298.2 612.96 299 612.82 299.04 609.46 299.93 609.34 300.01 606.03 300.95 605.86 300.97 602.61 302.07 602.45 302.13 599.25 303.37 599.07 303.42 596.03 304.73 595.82 304.78 592.79 306.21 592.65 306.32 589.68 307.78 589.55 307.86 586.63 309.5 586.45 309.55 583.65 311.29 583.55 311.37 580.83 313.19 580.69 313.29 578.02 315.17 577.88 315.28 575.31 317.25 575.2 317.37 572.77 319.47 572.62 319.6 570.32 321.79 570.17 321.92 567.94 324.17 567.77 324.35 565.69 326.69 565.55 326.8 563.53 329.26 563.38 329.46 561.55 331.99 561.38 332.15 559.63 334.81 559.49 334.99 557.82 337.68 557.7 337.89 556.17 340.64 556.05 340.86 554.67 343.77 554.54 343.94 553.26 346.93 553.17 347.15 552.07 350.17 552.03 350.35 551 353.44 550.95 353.65 550.12 356.72 550.1 357 549.44 360.04 549.39 360.25 548.88 363.42 548.84 363.59 548.46 366.68 548.42 366.93 548.19 370.12 548.18 370.3 548.05 373.44 548.05 373.7 548.09 376.86 548.13 377.07 548.27 380.28 548.27 380.44 548.63 383.61 548.68 383.79 549.05 387 549.09 387.21 549.7 390.38 549.77 390.54 550.41 393.7 550.51 393.93 551.36 397.07 551.39 397.21 552.39 400.38 552.41 400.59 553.55 403.62 553.56 403.85 554.83 406.97 554.87 407.11 556.18 410.16 556.31 410.37 557.74 413.43 557.82 413.56 559.44 416.62 559.49 416.71 561.18 419.78 561.24 419.93 563.11 422.87 563.19 423.04 565.12 425.97 565.2 426.11 567.28 429 567.36 429.11 569.51 431.97 569.6 432.14 571.87 434.95 571.98 435.07 574.34 437.83 574.42 437.92 576.94 440.62 577.01 440.74 579.61 443.44 579.73 443.55 582.38 446.11 582.51 446.22 585.26 448.79 585.39 448.87 588.27 451.36 588.39 451.44 591.41 453.92 591.48 453.98 594.55 456.33 594.66 456.44 597.85 458.63 597.89 458.78 601.26 461.01 601.37 461.06 604.74 463.23 604.82 463.26 608.27 465.31 608.43 465.4 611.95 467.35 612.04 467.42 615.62 469.32 615.75 469.38 619.45 471.2 619.61 471.3 623.36 472.98 623.47 473.02 627.37 474.64 627.46 474.68 631.38 476.2 631.51 476.26 635.39 477.64 635.54 477.67 639.47 478.91 639.67 478.99 643.55 480.05 643.67 480.07 647.56 481.1 647.7 481.16 651.63 482.08 651.75 482.13 655.7 482.9 655.8 482.9 659.66 483.54 659.86 483.59 663.73 484.13 663.85 484.15 667.7 484.58 667.81 484.53 671.69 484.89 671.83 484.91 675.62 485.1 675.77 485.13 679.55 485.19 679.69 485.15 683.46 485.13 683.59 485.12 687.28 484.98 687.43 485.01 691.12 484.77 691.26 484.76 694.93 484.35 695.04 484.33 698.6 483.86 698.78 483.83 702.35 483.28 702.45 483.26 705.96 482.56 706.11 482.56 709.55 481.7 709.71 481.7 713.14 480.78 713.27 480.77 716.5 479.8 716.71 479.75 719.95 478.66 720.13 478.6 723.32 477.35 723.43 477.31 726.56 476 726.75 475.95 729.74 474.5 729.93 474.45 732.89 472.94 733.07 472.89 735.92 471.25 736.12 471.17 738.9 469.47 739.02 469.39 741.78 467.58 741.94 467.45 744.54 465.55 744.68 465.45 747.17 463.43 747.31 463.33 749.82 461.26 749.98 461.1 752.27 458.95 752.4 458.8 754.6 456.55 754.8 456.37 756.87 454.03 757 453.89 759.04 451.47 759.16 451.26 761.07 448.75 761.19 448.54 762.97 445.92 763.06 445.77 764.73 443.07 764.83 442.82 766.33 440.02 766.42 439.87 767.86 436.95 767.98 436.74 769.24 433.8"/>
      <path class="st7" d="M666.49,372.07c15.9,6.46,30.39,17.1,39.76,29.43,15.24,19.89,8.64,39.79-4.38,58.53-8.28,12.14-20.12,21.35-32.17,29.49-3.8,2.54-7.57,5.09-11.6,7.32-4.47,2.62-9.18,5.02-14,6.86-17.83,7.14-37.35,2.3-46.86-15.3-4.34-8.07-7.25-17-9.28-25.93-4.23-17.7-5.71-36.38-2.67-54.41,2.51-14.81,8.08-30.11,21.86-37.76,13.47-7.5,30.38-6.16,44.9-2.83,4.84,1.19,9.71,2.69,14.43,4.61"/>
      <path class="st14" d="M715.97,444.04l.07-.16.73-2.02.06-.14.65-2.02.07-.16.53-2.01.02-.22.53-2v-.23s.43-2.01.43-2.01l.05-.2.25-2.05.02-.22.21-2.01.04-.24.03-2.05v-.25s.01-2.06.01-2.06l-.02-.27-.15-1.99v-.29s-.34-2.06-.34-2.06l-.03-.24-.37-2.08-.03-.24-.55-2.06-.07-.22-.62-2.05-.12-.28-.79-2.09-.1-.23-.89-2.01-.13-.25-1.1-2.12-.07-.22-1.18-2.02-.15-.19-1.32-2.05-.16-.16-1.5-2.09c-.05-.05-.06-.09-.1-.13l-2.08-2.65-.11-.14-2.3-2.58-.12-.18-2.38-2.45-.14-.15-2.47-2.46-.12-.11-2.69-2.35-.12-.08-2.71-2.33-.15-.12-2.83-2.14-.14-.12-2.95-2.1-.15-.09-3.05-2.01-.12-.08-3.12-1.91-.15-.1-3.23-1.77-.16-.09-3.29-1.66-.09-.1-3.32-1.55-.19-.08-3.4-1.44-.14-.06-3.59-1.37-.12-.05-3.64-1.25-.23-.06-3.58-1.1-.14-.06-3.66-.88-.11-.04-2.32-.55h-.09s-2.39-.46-2.39-.46h-.06s-2.36-.44-2.36-.44l-.17.03-2.36-.38-.06-.02-2.41-.33-.15-.03-2.49-.3h-.13s-2.42-.14-2.42-.14h-.1s-2.45-.13-2.45-.13l-.12-.02-2.46-.03-.22-.03-2.42.11-.2.02-2.44.14-.19.02-2.44.23-.18.05-2.3.36-.25.06-2.37.45-.16.09-2.39.51-.26.08-2.29.74-.19.08-2.29.8-.27.12-2.18.94-.26.15-2.15,1.09c-.08.06-.15.07-.26.12l-1.89,1.16-.31.2-1.79,1.23-.21.14-1.7,1.33-.21.2-1.58,1.45-.24.19-1.48,1.42-.21.2-1.39,1.59-.16.22-1.32,1.68-.13.17-1.23,1.75-.12.21-1.14,1.79-.15.2-1.02,1.8-.07.1-1.02,1.93-.06.14-.93,1.98-.07.17-.85,2.03-.03.08-.77,2.04-.08.19-.7,2.03-.03.08-.61,2.07-.06.14-.57,2.12-.03.08-.54,2.19v.06s-.49,2.08-.49,2.08l-.03.15-.43,2.08v.12s-.39,2.1-.39,2.1q0,.07.01.13l-.61,4.19-.03.15-.48,4.21v.16s-.37,4.22-.37,4.22l-.03.15-.16,4.18.03.18-.06,4.19v.19s.09,4.26.09,4.26v.13s.26,4.22.26,4.22l.03.1.33,4.19v.16s.48,4.19.48,4.19l.03.15.6,4.14v.16s.79,4.08.79,4.08v.14s.77,4.13.77,4.13l.03.11.92,4.14.06.09.81,3.32.03.1.94,3.41.04.08.94,3.3.09.1,1,3.3.11.14,1.22,3.26.04.15,1.31,3.2.07.15,1.43,3.19.1.13,1.58,3.09c.03.08.05.12.08.19l1.22,2.07.18.27,1.29,1.9.15.16,1.34,1.86.23.25,1.4,1.7.21.18,1.53,1.62.24.2,1.61,1.42.21.19,1.64,1.28.3.22,1.7,1.2.24.13,1.77,1.11.27.14,1.86.95.26.14,1.87.85.27.11,1.99.72.26.07,1.97.61.26.07,1.97.44.3.06,2.05.35.3.06,2.11.28.22.02,2.16.14.28.02h2.13s.21-.05.21-.05l2.12-.07h.25s2.18-.2,2.18-.2l.24-.03,2.17-.34.28-.06,2.15-.44.14-.04,2.19-.55.29-.08,2.12-.71.23-.07,2.15-.76c.1-.03.14-.04.19-.09l3.56-1.48.17-.09,3.57-1.67.14-.11,3.46-1.78.08-.06,3.46-1.87s.07-.04.11-.05l2.99-1.81.06-.07,2.94-1.77.08-.03,2.82-1.94.05-.05,2.85-1.86,2.8-1.92.09-.06,2.74-1.91v-.03s2.74-1.98,2.74-1.98l.09-.06,2.71-2.08.12-.05,2.65-2.07.05-.05,2.6-2.19.08-.06,2.57-2.21.12-.11,2.49-2.27.1-.18,2.38-2.34.12-.15,2.31-2.44.13-.14,2.2-2.57.11-.12,2.08-2.66.12-.15,2.01-2.72c.07-.1.08-.13.09-.16l1.31-1.94v-.03s1.33-1.98,1.33-1.98l.07-.1,1.19-1.96.06-.07,1.17-2,.03-.08,1.09-1.97.07-.1,1.06-1.99.08-.13.94-1.97.05-.13.89-2.03.03-.08.86-2.03Z"/>
      <path class="st14" d="M624.2,475.34c.93.38,1.4,1.38,2.48,1.82.96.39,2.05.19,3.13.28.76-.02,1.36.13,2.05.41,1.33.54,2.41,1.52,3.54,2.6l2.19,2.04,1.1,1.03c.72.78,1.45,1.59,2.37,2.09l1.05.43.54.18c.55.16,1.03.48,1.44,1.1.6.92-5.32.9-5.61.9-.74,0-1.26.13-1.97.27-.86.07-1.41.07-2.22.48-.64.32-1.27.67-1.93,1.02-.5.28-1,.26-1.51.64-.48.38-.73.7-1.39.88-1.66.51-3.26.67-4.86.25l-2.68-1-1.24-.66c-.72-.52-1.36-1.33-2.08-2.01-.38-.31-.79-.9-1.13-1.26-.88-1-1.08-2.43-1.67-3.64-.45-.96-1.23-1.82-1.74-2.7-.29-.57-.74-1.17-1.18-1.67-.95-1.08-2.11-1.85-3.12-2.84-.78-.64-1.15-1.62-2.02-2.07.47-.2,1.04-.03,1.53.04l1.86.17c1.18.26,2.29.71,3.38.86,1.48.25,2.93.32,4.46.27,1.49-.04,3-.42,4.48-.18.23.06.47.1.75.28"/>
      <path class="st14" d="M624.2,475.34c.93.38,1.4,1.38,2.48,1.82.96.39,2.05.19,3.13.28.76-.02,1.36.13,2.05.41,1.33.54,2.41,1.52,3.54,2.6l2.19,2.04,1.1,1.03c.72.78,1.45,1.59,2.37,2.09l1.05.43.54.18c.55.16,1.03.48,1.44,1.1.6.92-5.32.9-5.61.9-.74,0-1.26.13-1.97.27-.86.07-1.41.07-2.22.48-.64.32-1.27.67-1.93,1.02-.5.28-1,.26-1.51.64-.48.38-.73.7-1.39.88-1.66.51-3.26.67-4.86.25l-2.68-1-1.24-.66c-.72-.52-1.36-1.33-2.08-2.01-.38-.31-.79-.9-1.13-1.26-.88-1-1.08-2.43-1.67-3.64-.45-.96-1.23-1.82-1.74-2.7-.29-.57-.74-1.17-1.18-1.67-.95-1.08-2.11-1.85-3.12-2.84-.78-.64-1.15-1.62-2.02-2.07.47-.2,1.04-.03,1.53.04l1.86.17c1.18.26,2.29.71,3.38.86,1.48.25,2.93.32,4.46.27,1.49-.04,3-.42,4.48-.18.23.06.47.1.75.28"/>
      <path class="st11" d="M633.64,477.03c.1.14-.11.12-.1.24l.15-.03c-.01.09,0,.23.11.27h-.03s-.14.09-.14.09v.03c-.14-.24-.23-.57,0-.6M633.63,477.63l-.06.14.06-.14ZM622.03,473.79l-.19.02-.09.12.1-.06c.13-.01.26-.02.19-.08M635.36,485.8v.1s0-.1,0-.1ZM616.09,479.07l-.02.05-.17.02.08-.13.11.05ZM621.57,481.35l-.03.08.03-.08ZM623.08,482.06l.03.08.05-.05h.03s-.11.13-.11.13q-.02-.11,0-.17M621.81,481.54c-.12.15,0,.07-.02.19l.1-.16-.08-.03ZM606.64,474.07l-1.48,2.45,2.02-1.72-.54-.73ZM612.54,479.97l.06.09-.09-.1h.02ZM617.61,488.08l.04.05-.06-.15-.08-.03c-.25-.42-.77-.63-.76-1.14.04.05-.21.14-.16.16-.08-.29.08-.35-.04-.47.07,0-.15-.09-.22-.24l-.05-.05.06.02.07.06c-.2-.15-.82-.85-.85-1.48h-.14s-.31-.24-.31-.24l.25-.06-.05-.18-.04-.14c-.1-.17-.29-.31-.2-.53l.11.04c.05.02.18.01.15-.13l-.15-.1v-.04s-.09,0-.09,0l-.1-.07-.25-.1-.08-.13-.07.1c.12-.15-.35-.34,0-.48l.24-.1s-.16-.09-.28-.11c-.08-.03-.17.03-.23.04l.05-.12c-.12.05-.16.07-.19.06-.11-.04-.08-.26-.19-.31l-.09-.04-.04.02c-.03-.34-.38-.66-.28-.89-.25-.1-.47-.19-.55-.47.06.02.1.07.18.04.01-.19-.13-.18-.26-.24.08-.03.04-.47.03-.69-.14-.13-.28-.09-.44.04l-.13-.15c-.15-.12-.39-.16-.31-.41.1-.02.36.05.26-.09l.05-.2-.14-.06c-.05-.02-.16-.07-.27-.05-.08-.03-.14-.12-.15-.16l-.17.26c0-.07-.12-.12-.2-.15-.11-.11-.19-.08-.06-.24-.07.03-.13-.09-.18-.12l-.14-.06-.1.1c-.24-.52-1.17-.77-1.04-1.42l-.22-.09-.09.06.09.1h.09s.03.01.03.01l-.14.04c-.11-.14-.22-.25.14-.34-.08-.12-.13-.18-.14-.15-.22-.09-.46.04-.64,0-.08-.03-.14-.06-.21-.18.08-.13.09-.15-.03-.24l-.42-.14c-.21-.28.15-.36.26-.48-.03-.08-.1-.14-.16-.16-.05-.05-.15-.1-.23-.06l.08-.28h-.03s-.08-.04-.08-.04l-.05-.02-.09-.04-.03-.24-.05-.02c-.06.07,0,.23.01.42l-.16-.07c-.03-.07-.09-.1-.16,0,.18-.18-.02-.33-.08-.42-.07-.06-.19.06-.21.05.07-.1-.12-.05.03-.15l.12.05.02-.22-.12-.02c-.1.09-.12.3-.24.26l-.04-.05.12-.08.08-.03-.04-.05-.42-.94-.28.38-.79-1.16,1.47-.14.21.05-.17.09-.06.07.14.06.4.04-.03-.17.06.09c.08-.2.28-.15.42-.16l.04-.17.1.07.09-.06.14.03.12.05.26.14-.11.03c.21.11.45.08.62-.02v.03c.08,0,.27.02.43-.07.22.18,0,.73.22.57.32.03.5-.35.45-.47.31.13.65.05.98.18.06.02.17.07.27.2.09-.06.03-.08.19-.15.44.18,1,.09,1.37.3l.36.31c-.18.03-.05.21-.04.25h.09s.05.03.05.03l.08-.03c.01-.19.06-.31-.08-.42.19-.02.52-.02.77.08.12.02.17.07.21.19-.04-.12.02-.12.09-.16l.08.23.16.07.19-.05.07-.16.1.23s.09-.23.18-.22l.1.07.02.2c.24-.12.53-.36.74-.18l.16.26c.08-.04.23-.19.1-.24l.42.17c.11.04.16.13.25.26.76-.53,1.65-.59,2.34-.63l.02.11c.22.09.05-.21.19-.15-.06.14.22.25.07.45.34.11.4-.26.6-.37l-.02-.03h-.13s.02-.04.02-.04c.02-.06.39.09.44-.21.08.12,0,.32,0,.39l.26-.16c.18.34-.55.64-.28,1.01l.2-.12c.14.29-.45.4,0,.42.15-.13.31-.52.09-.63.29-.08.28-.28.37-.43v-.03s0,.13,0,.13c.22.16.45-.17.64-.09-.18-.1-.05-.34.16-.38.27.14-.2.27.18.29.1-.15.42-.24.14-.36.03-.08.11-.18.16-.16.1-.03.2.21.37.05.07.28-.36.49-.05.68.02-.15.1-.18.22-.3,0-.07.46-.1.1-.31l.19.08c.1.07-.01.19-.1.31l.17.07.36-.08.16.07v.22s.27-.18.27-.18l.14.35.2.08.3.12c.11.05.16.07.06.22l.23.09c.11.04.18.03.18-.13l-.12-.11-.08-.03c-.08-.03-.12-.08-.09-.26.02.2.09.26.2.31l.34-.05-.07.16.17.07.2.05c-.12-.02-.14.04-.13.14l.2-.08c.3.12-.12.3.09.42h-.25c.05.01.01.2.13.21l.53-.27h.03s-.03.1-.03.1l.08-.03-.25.08c-.07.07-.11.28.04.37.06,0,.42-.09.26-.34.15.06.19.26.06.35.27.04.08-.2.32-.23-.18.05-.01.35.05.5l-.25.29.11.04c-.24.12,0,.16-.16.39.09.1.22.02.38-.05-.22-.41.4-.51.27-.92h.16c.18.17.12.89.45.38-.05-.11.05-.26.02-.27.07-.1.11-.35.33-.26-.2.17.26.39-.07.64l-.07-.06-.08-.03-.08.03c.03.11,0,.23.12.37h.13c.14-.05.41,0,.31-.21l-.03-.11-.05-.02h-.07s.04-.1.04-.1c.08-.03.14-.04.21-.02.06,0,.13.05.2.12.06.02.11-.03.17-.16l-.18-.04c-.08-.19-.14-.28-.09-.42l.27-.02-.03.08c.41.17-.02-.26.61-.16l.22.28c-.19.31-.74-.11-.63.35.3-.04.41-.22.71-.1l-.23.1.2.3.16.07.27-.08c.21-.14.09-.15.11-.28.47.03.65-.09.96,0-.07.08,0,.13.13.22l.09.04s.1.07-.11.08l-.14-.12c-.29-.15-.72-.23-.89.06.05.12-.06.07-.21.14-.15-.06-.21-.05-.28.12.35,0,.28.36.25.58.08.03.24-.03.28-.05.09-.22-.06-.25-.01-.45.36.15.85.12,1.12,0,.08.19-.04.43-.18.37l.66.27c.22.09.45.18.62.39-.06-.16-.01-.21.09-.16l.2.08h.09s-.17.26-.17.26c.38.09-.08.19.17.39.14-.04.37.05.5.1l.49.2c.21.44.86.67,1.12.91,0,.23-.29.39-.19.6.16.07.1-.25.19-.22l.08.2h-.07c.07,0,.17.23.31.35l.17.07.2-.1-.29.17.08.13.12-.05c-.11.12-.1.25-.25.21.02.11.09.17.18.27l.22.03c.07,0,.11.04.14.12v-.22c.47.19.49.52.81.69l-.12.14.25.1c-.12-.01-.09.16-.06.24h.15s-.72-.04-.72-.04c-.11-.14.25,0,.32-.22.01-.12-.09-.26-.24-.29l-.17.03.24.1c-.18.19-.28.06-.51.15l.07.06-.23-.06-.23-.15c.19.01.08-.2.17-.25l-.17.1-.23-.09-.16-.17c.03-.08,0-.13-.09-.16-.15-.12-.51-.18-.62-.31.25-.13.52-.17.75-.08-.05-.21-.21-.12-.25-.35-.21.04-.43.18-.7.07l.1-.09c-.23-.09-.46.11-.65-.23l-1.07-1.01.11-.21c-.14.11-.24.1-.34.06l-.2-.08-.26-.14c-.07-.06-.15-.1-.21-.05l-.32-.23c-.05-.12-.11-.14-.15-.09-.11-.05-.18-.04-.25-.03l-.31-.12-.16-.23c-.82-.1-1.53.06-2.55.09l.17-.32-.08.1-.17-.2-.05-.02c.22.22-.29.3-.41.44-.43-.21-1.09-.09-1.68-.13l.07-.17-.28-.02-.2-.08-.26-.14-.61-.63s.02-.21-.07-.29c-.4.03-.48-.1-.84-.15l-.58-.62c-.75.21-1.7-.01-2.77.33l-.07-.22c-.51.3-1.09.39-1.85.44-.54-.03-1.08-.05-1.59.03l.08-.35c-.31-.12-.7.07-.65.35-.25-.1-.57-.04-.74-.09l-.18-.1c-.22-.09-.35.06-.56.1l.04.05c.04.08-.02.29.01.3.27-.28.32-.23.52-.33.08.03.24.2.27.36.58-.15.92.25,1.47.24l-.08.2c.21-.11.44-.05.6.04.17.07.31.2.47.26.13-.02.19,0,.3.05l-.19.31.11.04c.08.03.23-.1.29-.27l.06.09.11-.03.08.03s0,.07-.04.18l.08.03c.09,0,.18-.13.31-.11l.1.21.14.06h.14c-.03.08-.09.21-.05.26.13-.08.24.2.39-.23l.07.13.14.06.22.02s.09,0,.14.06c0,0,.03.08.08.2l.06-.15-.09-.04.04-.02.35.25.2-.02c.02.11-.11.19-.04.25.08-.03.06-.14.15-.2l.23.06c.21.12.44.44.72.52.57.03,1.09.34,1.6.48l-.06.15.17-.1.13.22.14.06.15-.14c0,.1.18.11.09.27h.09s.26.17.26.17h.16s.16.16.16.16l.18.04c.06,0,.11.04.19.17l-.16.07.08.06.17-.03.05.02-.06.14c.05.02.13-.17.08-.2l.45.25c.3.06.68.06,1.05.18.24.35-.26.63.11.53l.09-.12.08.03c-.02.05-.07.23-.04.33l.08.03c.09-.31.12-.14.2-.34l.12.41.18.04-.04.11c.32-.32.46-.03.75-.36l1.64.47,1.52.23c1.1.38,2.12.48,3.1.97.09.26.16.32.37.37h.16s-.02.06-.02.06l.08-.06c.05-.04.17.07.25-.13.33.13.7.16,1.14.27-.06,0-.16.23-.1.25l.14-.17.03-.15-.18-.2s.4-.26,1-.11c.11-.02.28.05.42.24.11-.03.16,0,.25.03.08-.04.13-.01.22.09.41.24.8.65,1.2.94l.13.05.26.1.53-.04.93.7c.31.13.69.14,1.06.08l-.1.41.12.05c.13.05.28.17.41.32.2.21.65.75.15.81-.06-.02-.17-.07-.23,0l-.82.66h-.03s-.03-.02-.03-.02h-.03s-.06-.1-.06-.1l-.14-.25-.06.07-.47-.19-.12-.05c-.12.07-.3.03-.36.17-.1-.07-.1-.21-.24-.29l-.08.2c-.4.61-1.06-.01-1.65.36.03-.08.12-.14.08-.19-.55.23-1.07.27-1.65.33l-1.41.33s.03-.25-.07-.32c0,.26-.3.36-.56.45-.18-.27-.45.33-.77.3l.03-.08c-.16.39-.44-.02-.52.34l-.19-.17c.03.23-.16.16-.25.16-.08-.03-.19-.01-.22.07l.05.02c-.13.16-.3.09-.41.22h-.03c-.29.22-.65.18-.52.39-.24-.13.36-.24-.06-.47-.87.87-2.09,1.4-3.1,2.08h-.03s-.34.14-.34.14c-.2-.08-.31-.12-.37-.22-.09.06-.46.11-.55.32l-.17-.13c-.29-.06-.28.37-.55.32.12-.14.11-.2.04-.27-.18.21-.45.24-.72.28.02-.05.11-.05.06-.14-.24.29-.52-.05-.78.2l.13-.24c-.44-.18-.16.39-.52.24.08-.03.04-.11.06-.14-.34.28-.97.09-1.27.12l.03-.08c-.36-.05-.74-.24-1.13-.3-.11-.05.02-.21-.05-.28l-.19-.08c-.05.26-.72-.13-.57.31l-.72-.38-.3-.12c.21-.01.04-.4.32-.29l-.13-.32h.07s.11-.02.11-.02l-.46-.13-.17-.07c-.35.09-.67.24-1.12.06.27.04.09-.38.3-.33l-.94.17c-.08-.11.15-.23-.05-.28l-.22.07c-.03-.08-.52-.37-.32-.64l.08-.03.09-.06-.42-.23.04-.09-.09-.17c-.12-.05-.32-.09-.36.15l-.23-.06-.33-.23c.08.03.18-.13.28-.12l-.55-.22-.24-.13-.22-.09.1-.02.07-.03ZM632.33,488.27l.03.14c-.12-.31.45-.3.41-.67.88-.51,2.32-.8,3.22-.95-.14,0-.19.12-.12.21l.15.03.16-.23.05.12c.12-.14.27-.34.13-.4l1.28-.22.38.9.04-.88h.06s.07-.01.07-.01h.18s.18-.01.18-.01l-.14-.06c-.05-.02-.08-.03-.17.03l.08-.2c-.43.27-.93.07-1.36.09l.09-.29c-.08.19-.28.21-.41.22v-.06c-.06-.02-.17.09-.23.09l-.11-.04v-.03s-.04.05-.04.05l-.07-.07h-.03s-.1.08-.1.08l-.02-.17-.06.08c-.03-.08-.02-.17-.09-.17l-.04.02-.02.06h-.06s-.03-.08-.03-.08h-.07s.02-.05.02-.05h-.16s-.09,0-.09,0h.06s.05-.28.05-.28c-.63.13-1.15-.08-1.68-.23l-.09-.27c-.07.04-.2.02-.29.11l-.02-.13c-.04-.12-.11.05-.21.14l-.06-.02c.1-.08.12-.14.17-.25-.19.15-.31.11-.45.14l.09-.12-.12.05h-.03s-.1-.09-.1-.09l-.14.04.15-.13-.13-.08c-.06,0-.12.3-.17.28l.09-.22c-.2.24-.42.08-.58.15l.03-.08c-.2.02-.33-.13-.48-.06-.05-.05.09-.38-.12-.34-.05.27-.28.05-.29.49l-.16-.09-.16-.07-.12-.02c.13-.17.08-.45.2-.4l-.03-.27.04-.02.06-.07h-.3c-.14.2-.41.54-.53.52.11-.18.09-.44.17-.41l-.48.48c-.06-.02.01-.19.01-.19h-.03s-.13.14-.13.14c-.03-.01-.25,0-.17-.27.02-.21.13,0,.14-.26-.14-.06-.19.05-.31.13l.06-.14c-.06-.02-.3.1-.25.29l-.28.04.12-.21-.31.16-.31.11.05-.04c.06-.14.08-.2.12-.15l-.08-.12c-.14-.06-.35.08-.43.04v-.16s-.08.2-.08.2c-.06-.02-.01-.2,0-.23h-.06s.03-.08.03-.08l-.12.04c-.15.06-.52.11-.7-.16-.03.13-.2.24-.25.22l.09-.15-.03-.08-.09-.11-.13.08-.06-.16c0,.07.17-.18.06-.22-.09-.04-.06.07-.2.08l-.14.04-.06.08h-.03s-.03.07-.03.07l-.05-.05-.05-.02c-.04-.05-.03-.08,0-.17l.12-.23c-.05-.02-.2.2-.23.26v-.07c-.08.17-.17.1-.2.09l-.05-.02-.02.05c-.11-.14-.3-.12-.28-.34-.16.07-.24.13-.34.06l.12-.15-.05-.02h-.17c.05-.05,0-.29-.03-.39-.11.05-.16.25-.23.42v-.2c-.09-.03-.24.08-.29.05l-.02-.1c.05-.05.19-.15.14-.27l.02-.12c-.08-.03-.15.07-.22.14l-.11-.04-.1.32-.03-.08-.05.04-.05-.02.02-.12-.11-.04-.09-.04-.06.14-.11-.11c-.07-.06-.09-.1-.13-.08-.17-.07-.32-.1-.24-.45-.05.04-.11-.05-.19.14l.09-.21-.06-.02c-.06,0-.27.37-.43.28.04-.11.04-.18-.01-.21l-.16.16c-.1-.07.05-.3.12-.46-.12-.02-.16-.07-.24.05v-.25c0,.16-.1.09-.13.11l.04-.02-.02-.04h-.09s.02.25.02.25l-.15.14c.07-.17-.04-.21-.07-.23h-.03s-.06-.04-.06-.04v-.22s-.08.03-.08.03c-.07.03-.08.2-.12.31l-.05-.02.15-.23-.07-.15-.15.06c-.09.22-.2.01-.31.2-.08-.03-.08-.19-.11-.2l-.08-.11-.17.1.03-.08c-.05-.02-.13.01-.19.08-.09-.19.13-.56.07-.58l-.04.09c-.08-.03-.26.24-.27.37l-.14-.06-.12-.02-.14-.06-.14-.22-.11.11c-.06-.02-.13-.08-.17-.07-.11-.04-.16-.07-.21-.02-.11-.04-.23-.15-.28-.34.14-.02.16-.23.18-.28h-.06s-.04-.04-.04-.04l-.02.05c-.08.19-.12.31-.09.38l-.29-.09s-.11-.11-.11-.2c-.02.12-.06.14-.1.18.08-.19.1-.25.04-.28l-.14.02-.1.09.04-.18c-.08.04-.15.23-.19.22v-.06s.08-.2.08-.2c-.15.14-.36.24-.39.07v-.23s-.18.13-.14.17c-.08-.19-.16-.23-.14-.51-.38.29-.65.25-.87.16l-.28-.11.07-.1-.05-.02-.04.11-.05-.02c.09-.06.05-.27.23-.42l-.11-.04c-.08-.03-.22.2-.32.23l-.02.05h.03s-.01.04-.01.04h-.03s-.05-.06-.05-.06c-.05-.02-.09,0-.13.1l.21-.36-.14.11c.06-.3.38-.37.52-.79l-.06-.02c.03-.24.29-.17.16-.32-.12.08-.34.37-.33.5-.12.05-.23.23-.33.32v-.03s-.06-.16-.06-.16c-.05-.02-.16.1-.18.06.02.1-.15.36-.21.36-.04-.14.15-.23.09-.29-.12.15-.28.21-.21.27-.14.2-.14.1-.18.05h-.03s-.09.05-.09.05c.09-.22.38-.46.3-.58-.09.21-.28.21-.36.5,0-.07.05-.2.14-.33h-.03c-.06-.04-.08.03-.13.07h-.03s-.02-.05.02-.14l-.1.16v-.29s-.12.05-.14.03h-.03s.05-.15.05-.15c-.06,0-.17-.07-.26.22l.05.05h.04s-.01.01-.01.01l-.12.04c.15.12.26.3.35.56l-.06-.02-.14.03c-.04.25.56.13.25.49l.08.03c.05-.04.14-.1.09-.12.51,1.04,1.52,2.03,2.2,3.21.14.92-.61.39-.02.86v.06s.06-.07.06-.07c.2.24-.25.54.03.65l.1-.09.11.11h.14c.01.51-.16.77.22.95l-.13.07c.33.13.51.5.8.65.08.03.18.03.32,0l.1.07-.11-.05c1.07,1.02,2.1,2.07,2.73,2.33l.83.41.66.27,1.77.56c1.13.39,2.66.18,4.12-.25.72-.45,1.27-.68,2-.96.69.05.7.02,1.2-.42M613.96,476.24l-.05.05.02.1.03-.15ZM639.72,486.15c-.09-.04-.17.1-.29.15h.06s.17,0,.17,0h-.03s.09-.15.09-.15ZM639.4,486.15c-.08.19-.2.01-.28.14l.22.02.07-.16ZM639.14,485.91l-.14.27-.17.1h.29s.02-.36.02-.36ZM612.87,476.53l-.14.04-.04.11.11.04.08-.2ZM614.12,477.36l-.19.05c0,.16-.07.33-.17.41l.09.1.09-.06-.06-.02c.25-.22.07-.26.23-.48M614.46,478.4h-.03s-.08.11-.08.11h.03s0,.08,0,.08l.09-.04v-.16Z"/>
      <path class="st11" d="M679.94,415.23c3.35.53,6.45,1.62,9.53,3.61,4.77,3.22,8.55,7.53,12.36,11.77.71.84,1.59,1.46,2.39,2.19.48.49,1.95,1.69,1.91,2.39-.08,1.38-2.75-.86-3.12-1.14-2.6-2.15-4.83-4.66-7.59-6.65-2.91-2.11-6.13-3.78-9.47-4.97-1.91-.68-3.85-1.15-5.87-1.39-2.3-.35-4.35-.77-6.62-.73-2.47.06-5.24.32-7.59-.7-1.15-.5-2.94-1.8-2.9-3.16.01-1.93,2.98-2.1,4.4-2.2,2.03-.24,4.39.11,6.53.23,2.06.13,4.08.38,6.03.75"/>
      <path class="st11" d="M631.05,394.86c-2.94-1.81-6.01-3.18-9.67-3.67-7.11-.93-14.16.58-21.27.91-1.03.07-4.18,1-1.9,1.97,1.36.55,3.26.38,4.67.38,2.66.02,5.46-.06,8.14-.1,4.32-.24,9.13.33,12.83,2.96,1.1.77,2.01,1.78,3.07,2.56,2.21,1.58,4.18,3.02,6.13,4.94,1.66,1.7,3.46,3.53,5.84,4.08,1.28.33,2.54.07,3.7-.72,1.59-1.15-.52-3.72-1.51-4.98-1.42-1.74-3.37-3.04-5.12-4.49-1.59-1.39-3.27-2.65-4.91-3.83"/>
      <path class="st18" d="M675.48,437.29c-2.07-.52-4.29-.91-6.42-1.13-1.33-.13-2.7-.1-4.01-.12-.75.02-9.18.2-8.41,2.18l.7,1.53c2.13,4.08,4.17,8.25,7.53,11.26,6.7,6.13,15.46,10.46,24.85,8.64.7-.1,9.73-2.1,9.68-2.37-1.77-5.15-4.6-9.81-8.53-13.2-2.35-2.05-5.1-3.52-7.98-4.6-2.4-.97-4.89-1.6-7.41-2.2M614.08,411.8c-2.41-.95-4.87-1.53-7.35-2.11-2.08-.49-4.19-.83-6.35-1.07-1.36-.14-2.66-.12-3.99-.08-.76.05-9.09.27-8.43,2.3l.76,1.53c1.98,4.21,4.03,8.36,7.26,11.41,6.62,6.13,15.3,10.49,24.64,8.56.66-.21,9.74-2.35,9.66-2.57-1.71-5.29-4.46-9.92-8.33-13.39-2.31-2.06-5.06-3.56-7.88-4.58"/>
      <path class="st11" d="M659.13,434.7c-7.13,1-3.18,6.55-.89,10.67,8.03,14.65,26.77,20.23,41.9,13.64.96-.38,1.33-1.45,1-2.46-3.48-8.87-8.77-15.01-17.55-18.8-8-2.73-16.1-4.23-24.47-3.05M683.68,441.9c-2.81.82-5.13,3.06-6.3,5.93-1.18,2.9-1.02,6.21.49,8.82l.08.12-2.39-.77c-3.4-1.28-21.72-16.76-14.11-17.85,7.01-.95,14.13.78,20.73,3.07l1.49.67ZM696.71,455.42c.86.1,1.4.12,1.57.26.25.1-.38.29-1.99.63l-2.7.55.11-.12c.42-.57.71-1.19.99-1.88.3-.74.52-1.52.63-2.26.56.91.97,1.87,1.39,2.82M590.5,407.28c-7.11,1.03-3.24,6.56-.98,10.73,3.24,6.27,8.49,10.87,14.54,13.62l2.32.94c7.78,2.71,16.67,2.53,24.65-1.11.97-.42,1.37-1.47.99-2.43-3.3-8.93-8.46-15.14-17.23-18.96-7.96-2.72-15.97-4-24.28-2.78M615.92,414.7l-.22.04c-3.52.21-6.76,2.49-8.11,5.81-1.14,2.81-.75,6.03.87,8.62l-.49-.2-2.27-.92c-3.65-1.71-7.12-4.18-10.04-7.35-3.72-3.92-8.14-9.58-1.17-10.19,6.42-.61,12.77.94,18.88,3.01.88.36,1.72.76,2.54,1.19M627.86,428.78c-1.04.35-2.08.7-3.16.97.38-.62.76-1.3.98-1.85.35-.85.53-1.71.62-2.58.59,1.08,1.06,2.23,1.55,3.46"/>
      <path class="st11" d="M627.71,451.4l-.02.06.02-.06ZM623.9,450.1c-.15.06-.08.2-.07.27t.07-.27M646.57,465.71l.21.12-.21-.12ZM627.24,458.38l-.03.08h.06s-.03-.08-.03-.08ZM638.36,465.88l.02.11v.06c0-.06-.03-.21-.02-.17M638.39,466.05l-.05.12.05-.12ZM620.81,459.76l-.11.05.11-.05ZM637.72,466.91v.03s0-.03,0-.03ZM637.71,466.94l-.02.05.02-.05ZM626.19,462.77l-.14-.06.14.06ZM627.57,463.95l-.04.11.08.03-.25.06c.16-.06-.04-.14.21-.2M620.92,458.87l.07.06.14.06.15-.14c.09-.06.07-.16.01-.19-.13-.08-.33-.13-.3-.22-.1.25-.53.27-.69.18.13-.33.44-.05.4-.36-.28.05-.54-.16-.62.1-.49.03-.13-.24-.24-.29l-.15.07c.37-.23.95-.06,1.1-.33-.4.16-.6-.11-1.08.1.07-.1.35-.14.59-.17v-.07c-.12-.2-.15-.12-.22-.18-.13-.08-.17-.13.18-.22l-.43.02.44-.28c.04-.18-.61-.48.01-.44-.11-.05-.07-.22-.24-.26-.05-.02-.15-.03-.24.03-.26.18.34.2-.28.37.29-.15.24-.26.07-.33l-.25-.1h.21c-.08-.07-.05-.23-.28-.29.16.07.27.04.35-.08h-.32c-.2-.3.54-.07.45-.33l.26.23c-.07-.06.27-.11.19-.31l-.94-.22c-.07-.29.4-.1.11-.34l.34.26c.08.1.52-.11.55-.32-.03-.07-.15-.18-.26-.23l-.25-.1c-.08-.03-.13,0-.18.05.02-.12.23-.26.48-.09l-.12-.17-.11-.05h-.16s-.12-.18-.12-.18c.24-.03.61-.3.93-.23l.46.31.02-.05.22.15c.11-.02.17-.02.28.02.06,0,.1,0,.24.13.09-.06-.03-.18-.11-.31l-.53-.12c-.39-.16-.52-.46-.97-.62-.05-.11.34-.03.62.06l.27.04c.24-.41.09-.28-.03-.62l-.11-.05-.23-.15c-.11-.05-.17-.07-.2.18.24-.26-.42-.56.01-.74.06.08.06.15.17.2.05.02.22.02.32.06.15.03.25.1.33.39-.19-.15-.28.05-.24.13.06,0,.13,0,.23.06l.39.16.11-.02c.04-.19.17-.35-.18-.52-.07-.06-.12-.11-.13-.08-.14-.06-.05.2-.24-.03.13-.31.59.04.15-.52l-.18.12-.22-.09-.21-.21.06-.3.12.25c.44-.21-.23-.45.04-.66l.48.22c.23.32-.5.22.03.66.21-.14.03-.44.26-.48v.22s.1,0,.1,0l.35.17.14.06c.05.02.11-.05.09-.22-.05-.28-.21-.21-.38-.41.2-.24.1-.57.25-.7.05.05.1.07.14.12l.08.03.11-.02.05.02.08.22c-.26-.17-.64.16-.37.59.5.33-.23.07.18.59.05-.12.08-.1.16-.07.14.06.44.41.62.61.08.03.01-.19-.01-.23-.19-.31-.24-.26-.51-.56.25-.06.31-.36.22-.69.16.07.38.42.33.46.15-.23.41-.38.74-.41-.47-.41.18-.28-.16-.71-.18,0-.54-.25-.6-.57l.08.03.1.3c0-.16.06-.14.11-.11l.06.09.14.06c.05.18.36.53.55.86l-.03-.08.05.02c.07.06.12.17.17.22l.08.03c.02-.28.14-.58.26-.8.41.27.57-.31.78-.42.25.17.4.67.52.72.12-.08-.3-.47,0-.33v.12c.03-.2.5.17.26-.53l.2.47c.04.05.02-.05.05-.11.07.16.14.28.14.44.26.3.2-.17.39-.23l-.24-.29c.12-.31.42-.08.62-.26l.04.31.08-.2c.05.19.13.31.18.34l.03-.08-.1.82c-.15-.19-.03-.43-.14-.7l-.08-.12h-.07c-.11.02-.15.13-.11.28.11.04.08-.03.07-.17.19.4.07.45.08.75l.06.02.04-.02c-.03.15-.11.27-.2.33.05-.27-.06-.31-.08-.41.05.4-.01.57-.16.54l-.13-.08c-.16-.07-.11.44-.26.41-.08-.35-.08-.74-.04-1.01l-.14-.06-.05.04-.12-.05c0,.39.18.85.12,1.07l-.15-.28c-.05.2.14.54-.06.55-.36.02-.66.12-.84.24l-.16-.26c.25.59-.25.38-.24.75-.3-.12-.36.33-.51.3l-.28-.11c-.23.48-.29.95-.59,1.14l-.3-.28.06.09-.08-.03c.07.06.1.23.19.31l.19-.06c-.38.14-.21.66.13.86l-.28-.11c.54.25.05.21-.06.46-.13,0-.45,0-.45.07l.34.11.14.06.29.22c.02.11-.07.26-.23.42.77.31.48.71.97.68l-.28.3c.23-.17.36-.18.48-.06l.21.18.17.07h.25s-.29.56-.29.56l.04.05c.1,0,.36-.17.5-.51l.02.1c.06.02.15-.04.23,0,.02,0,.08.03.04.28l.12.05c.08-.03.19-.24.34-.28.05.12.14.22.2.24l.21.09.23.03c-.09.12-.17.32-.08.35l.08-.03c.11.04.34.2.44-.37.15.16-.08.1.45.31l.29.09h.19c.19.08.55.49.65.79.04-.18.25-.06.4-.1.41.42.38,1.03.85,1.15-.03.08-.33.11-.25.21.08.03.22-.13.38-.07.74.49.28,1.37.51,1.68.65.56.67.89.96,1.14l-.09.06.14-.04h.03c.03.09-.13.47.27.12-.04.11.04.05-.07.26l.06-.07c.08.03.07.47.36.15l-.06.07.02.17.11.04.09-.06h.04s-.08.11-.08.11l-.04.11v.03s.12.02.12.02l.07-.1.05.02s.02.1.02.26c.07,0,.11-.34,0-.29.52.21.22.09.48-.07l.59-.43c.3.12.4.51.46.67l.08-.2c.04-.11-.09-.26,0-.16l.05-.04s.16.23.24.35l.17.07.06-.14c-.24-.43-.12-.28-.2-.47.12.02.33.13.44.18l.17.07s.14-.03.2-.17l.05.18c.03-.7.58-.47.65-1.28.7-.2,1.7-.79,3.23-.75.62-.11,1.18.03,1.78.21l.69.28,1.16.56.44.33.04-.4.1.04.28-.04-.26-.07.1-.02c-.06-.02-.29-.08-.48,0h-.03s0-.17,0-.17v.26s-.05-.28-.05-.28v-.52c0-.44-.01-.32.07-.54.05-.43,0-1.13-.35-1.66.05-.36-.33-.68-.59-1.01.02-1.24.05-2.42-.83-3.49,0,0,1.24-.21,1.67.07l.37.12c.79.29.34,1.23,1.24,1.47.05.02-.62.23-.42.31.11-.02.18,0,.27.04l.22.09c.59.37.53,1.38.24,2.16l-.14.03.04.08.44.18-.26.09.12.02.12.05.1.07.13.05-.47.29.38-.07.38.09c.39.07-.18.54.29.73l-.24-.03c.67.47.66,1.14.86,1.83-.19-.08-.42-.14-.59-.12l.34.11c.22.09.21.28.26.4-.46.03.31.34,0,.54l-.08-.03c.42.23-.25.15.23.41h-.39c.61.25-.31.06-.15.36l.17.07c.09.1-.24.03-.18.19l-.05-.02c-.03.21-.2.24-.15.36-.03-.08-.03-.17-.11-.2l-.31-.13c.09.97-.71,1.67-1.75,1.86-.08-.2-.14-.22-.11-.44-.09.16-.31.13-.4.35l-.08-.22c-.2-.22-.1.24-.27.3l-.14-.06c.15-.13.1-.24.12-.46-.16.39-.33.25-.52.34.04-.09.06-.08.1-.25l-.12.14-.08-.03-.09-.1-.05-.02h-.14s.14-.18.14-.18l-.05-.11c-.08-.03-.15.22-.27.34l-.11-.04.22-.24c-.42.31-.65.02-.89.06l.08-.1-.4-.22c-.1-.04-.19-.08-.24-.03-.02-.13.37-.59.14-.62-.37.46-.48,0-.66.6-.14-.12-.2-.31-.28-.34l-.11.03c.11-.19.11-.74.28-.69l.02-.35.06-.07.07-.1c-.06-.02-.27.02-.35.05l-.11-.04c-.3.26-.57.86-.7.94.12-.21.01-.58.1-.71l-.37,1.07c-.07,0-.01-.36-.07-.38l-.06.07c.09.1.02.27.02.36h-.03s-.1-.01-.1-.01l-.09-.04c-.04-.05-.1-.14-.16-.39-.07-.15.13-.07-.04-.23-.12-.02-.1.18-.22.23v-.1c-.11-.05-.23.36-.12.63-.04.02-.11.21-.18.21.03-.08.01-.19-.04-.3-.06.33-.21.52-.4.83.04-.17,0-.32.01-.35l-.13-.05c-.23.01-.25.55-.58.32l.14.22c-.15.04-.19-.17-.24-.19l-.08.04v-.07c-.09-.03-.07.16-.12.28v.03s-.01-.16-.01-.16c0,.16-.39.65-.75.51.04.14-.05.58-.11.66l-.1-.39-.06-.1-.05.05-.11.02c-.09.06-.13.17-.21.2l-.16-.07c.06.02-.02-.52-.12-.5-.18.12-.01.19-.17.41l-.06.14c.04.14-.04.11-.07.16-.03-.01-.04.02.01.2l-.05-.12c-.08-.03-.17.03-.24.1l-.11-.04v-.3s-.1-.35-.1-.35c-.09.06-.09.47-.11.69l-.1-.17c.11.4-.04.2-.22.23-.08-.03-.17.03-.18.22l-.33-.14c-.08-.03-.15-.03-.22-.02-.19-.08-.26-.14-.26-.3-.1.09-.19.25-.26.31l-.16-.07.09-.22v-.04s-.07-.02-.07-.02c-.34-.04-.18.12-.35.06.04-.09-.17-.39-.21-.67-.22.14-.26.48-.33.67l-.05-.18-.09-.04-.3.04-.11-.04-.11-.2c.08-.03.42-.15.32-.32-.03-.24-.02-.26-.09-.26-.14-.06-.46.43-.46.1l-.24.45-.03-.08-.09-.04h-.13c-.08-.02-.11-.1.02-.2l-.11-.04-.09-.04c-.06-.02-.12-.02-.19.15-.11-.59-1.02-.48-.58-1.26l-.17-.07s-.06,0-.1.08l-.03.08.05.02.11-.02v.03s-.18.1-.23.14c-.03-.24-.12-.34.39-.56l-.06-.08c-.24-.1-.94.35-.99-.02.18-.11.22-.23.14-.27l-.43.03c-.07-.29.35-.37.66-.6l-.12-.08-.14-.06h-.13s.32-.31.32-.31l-.18.11-.19-.08.14.06c.09-.15.09-.22.03-.24l-.11-.04c-.23.16-.29.3-.26.38l-.37.04c.3-.2.04-.4.13-.49l-.1-.07c.07-.1.27-.18.28-.21l-.16-.03c-.2-.04-.63.3-.48,0l.34-.06.1-.18-.27.11.14-.1-.15.06-.14-.06-.1-.07-.17.03c-.11-.04.12-.21.14-.26l.04-.02.06-.14-.12-.02h-.19s.04-.02.04-.02l-.09-.04-.17-.04c.14-.2.84-.59.74-.57h-.13c-.04-.07-.57.3-.73.45l-.03-.1c0-.09-.08-.03-.11-.04v-.1s.11-.12.11-.12c-.08.04-.1.09-.11.12l-.06.14-.23-.06v-.03s-.08-.04-.08-.04l-.08-.35c.16-.09.16-.38.22-.55l-.09.05v-.09s-.13.17-.13.17c-.12.31-.19.47-.09.64l-.28-.02-.19-.08-.09-.25c.01.13-.09.22-.13.24.1-.25.07-.4.01-.42,0-.06-.08-.03-.14,0l-.11.28v-.36s-.22.37-.22.37l-.06-.09.12-.31c-.21.1-.47.29-.57.28l-.09-.1.06-.46c-.14.04-.34.21-.26.35-.14-.29-.33-.46-.25-.81-.77.55-1.67.09-2.18-.5l.19-.14-.02-.04c-.16-.07-.36.11-.38-.02.19-.06.25-.45.62-.49l-.07-.15c-.18-.11-.58.09-.69.04v.07s.03.01.03.01c0,0-.05.05-.13.17-.09-.01-.06-.35-.2-.37h-.09c.1-.16.33-.26.47-.3l-.3-.06c.33-.35.97-.09,1.43-.61l-.16-.07c.37-.27.64,0,.57-.31-.21.04-.83.21-.93.38-.25-.16-.97.42-1.09.08l.1-.02ZM635.76,467.31l-.07.16.09-.15h-.03ZM635.59,467.56l-.04.11.08-.1h-.03ZM635.47,467.54v.14s0-.14,0-.14Z"/>
    </g>
    <g id="Symbols">
      <g id="Block_x2F_Brands">
        <g id="Group">
          <g id="Page-1">
            <g id="Group-12">
              <g id="WordLogo">
                <path id="Fill-20" class="st12" d="M379.35,708c-1.22.34-2.57.62-4.16.76s-2.97-.05-4.07-.59c-1.11-.51-1.88-1.22-2.33-2.12-.18-.35-.27-.78-.26-1.24l-3.63-71.13c0-1.7-.44-3.38-1.24-5.01-1.93-3.85-6.01-6.6-12.23-8.22-6.23-1.61-14.07-2.02-23.51-1.18-13.7,1.22-26.51,5.08-38.43,11.56l-2.4-47.72c-.21-2.09-.42-3.83-.63-5.21-.21-1.39-.53-2.53-.99-3.43-2.39-4.79-6.76-6.9-13.08-6.34-2.2.2-4.99.76-8.37,1.68-3.39.93-7.39,2.19-12,3.77l-20.39,7.56.08,3.41c7.72-.69,12.55.9,14.47,4.76.6,1.2.93,2.57,1,4.1l2.06,41c-5.19-1.47-10.7-1.95-16.57-1.43-3.12.28-6.22,1.15-9.33,2.62-3.12,1.49-6.12,3.4-9.04,5.77-.1-.93-.34-1.76-.7-2.5-.89-1.79-2.41-3.24-4.53-4.39-3.1-1.81-6.82-2.53-11.2-2.14-6.44.57-12.47,2.03-18.02,4.39l-20.92,8.36.29,3.25c7.74-.68,12.54,1.03,14.58,5.11.59,1.2.97,2.67,1.14,4.44l3.23,63.82c.22,1.15.42,2.18.65,3.08.2.91.48,1.71.82,2.38,1.27,2.51,3.48,4.53,6.62,6.05,5.54,2.69,11.76,3.72,18.64,3.1,5.3-.47,11.19-2.1,17.69-4.93,4.56-2.07,9.5-5.81,14.81-11.17l-8.18.72c-.13.07-.27.12-.39.18-1.19.44-2.54.74-4.02.87-1.6.14-2.94-.04-4.04-.57-1.1-.51-1.82-1.16-2.19-1.91-.23-.43-.32-.89-.31-1.35l-2.79-55.04c.63-3.06,2.36-6.37,5.18-9.87,1.61-1.85,3.06-3.36,4.41-4.53,1.35-1.17,2.72-2.16,4.11-2.98,2.56-1.16,5.97-1.93,10.23-2.31,4.5-.4,7.92-.54,10.27-.44l3.63,72.05c.02,1.24.12,2.15.31,2.76.18.6.52,1.38,1,2.35,1.38,2.75,3.75,4.86,7.14,6.34,4.98,2.75,11.03,3.8,18.18,3.16,5.53-.49,11.6-2.16,18.26-5,4.4-1.98,9-5.51,13.78-10.51l-8.52.75-.02-.2c-1.02.26-2.09.48-3.26.59-3.23.28-5.32-.53-6.27-2.46-.16-.29-.27-.76-.33-1.36l-3.62-72.05c5.45-1.81,10.47-2.92,15.06-3.32,10.67-.95,17.11.75,19.3,5.14.41.81.71,2,.89,3.52l3.26,63.59c.17,1.08.34,2.01.5,2.81.16.81.4,1.5.69,2.11,1.34,2.66,3.82,4.85,7.42,6.54,4.99,2.76,11.05,3.81,18.19,3.16,5.3-.47,11.26-2.12,17.9-4.96,4.83-2.2,9.69-5.8,14.63-10.75l-8.43.74Z"/>
                <path id="Fill-22" class="st13" d="M531.24,694.4s-.04.02-.07.02c-.87.39-2.24.67-4.08.83-2.08.19-3.61.04-4.58-.47-.97-.48-1.66-1.18-2.11-2.08-.22-.45-.34-.9-.32-1.37l-6.43-126.16c-.12-2.62-.71-5.02-1.78-7.18-.98-1.93-2.09-3.44-3.36-4.53-1.27-1.09-2.78-1.95-4.54-2.58-2.6-.85-5.53-1.42-8.79-1.72-3.27-.29-6.46-.31-9.58-.03-1.49.13-3.44.4-5.82.81-2.39.4-5.55,1.21-9.52,2.42-3.96,1.2-8.03,2.8-12.21,4.81-4.59,2.34-8.94,4.78-13.02,7.34-4.08,2.53-7.88,5.11-11.36,7.76-.43-6.13-.97-9.76-1.64-10.88-2.11-4.19-6.48-6.31-13.11-6.35-4.37.39-11.06,2.21-20.01,5.43l-20.92,7.62.08,3.41c5.49-.48,9.42-.07,11.82,1.27,1.46.73,2.5,1.73,3.11,2.97.52,1.05.83,2.58.86,4.59l6.17,121.62c.01,1.71.41,3.35,1.2,4.92,1.22,2.44,3.63,4.63,7.24,6.57,4.98,2.74,11.07,3.78,18.3,3.14,5.86-.51,11.76-2.17,17.69-4.94,3.03-1.36,5.86-3.13,8.5-5.3,1.56-1.31,3.52-3.11,5.81-5.36l-8.84.78v-.03c-.92.22-1.98.4-3.18.5-1.97.17-3.54-.16-4.76-1.03-1.21-.86-1.83-1.8-1.84-2.8l-5.13-101.24c-.22-5.26,1.22-9.93,4.34-14.01,3.12-4.07,6.92-7.26,11.36-9.56,4.44-2.31,8.2-3.59,11.31-3.86,5.88-.52,9.65.89,11.31,4.23.41.81.64,1.91.69,3.3l5.82,117.56c.28,1.77.78,3.36,1.48,4.77,1.34,2.68,3.72,4.91,7.14,6.71,5.34,2.71,11.57,3.75,18.72,3.11,2.76-.24,5.85-.87,9.26-1.86,3.4-1.02,6.22-2.02,8.47-3.08,3.5-1.64,6.42-3.41,8.71-5.31,1.47-1.19,3.45-3.06,5.86-5.54l-8.21.72Z"/>
                <path class="st16" d="M519.25,608.88l1.32-.12c-.29-10.59,2.1-21.73,5.62-33.07,1.1-2.41,2.22-4.61,3.3-6.45,21.62-36.93,60.69-33.6,103.78-24.18,21.33,4.67,51.63.53,54.62-57.36l-4.76.42c-5.59,33.68-31.21,42.04-50.7,37.76-43.12-9.43-82.16-12.75-103.79,24.18-2.29,3.9-4.08,7.91-5.46,12.14h0s-3.31,13.68-3.82,21.55h0c-.59,6.95-.81,15.4-.11,25.12Z"/>
                <path class="st15" d="M693.59,681.14c-5.11,4.91-9.99,8.55-14.61,10.88-3.14,1.59-6.71,2.76-10.73,3.52-.43.09-.85.17-1.3.24-.44.08-.88.15-1.34.2h-.1c-8.02,1.04-31.03,1.67-31.9-24.61,0-.2-.02-.38-.02-.57l-2.71-81.98c-.01-1.56-.25-2.87-.77-3.94-.5-1.06-1.28-1.85-2.41-2.41-2.03-1.03-5.06-1.6-9.06-1.71-3.36.23-7.33,1.49-11.91,3.8-4.56,2.32-8.44,5.5-11.57,9.54-3.15,4.05-4.66,8.73-4.53,14.03l1.56,34.7c-.06.38.05.88.36,1.5.3.68.78,1.19,1.43,1.54,1.02.4,2.56.59,4.6.62,1.64-.12,3.08-.38,4.36-.79l8.48-.56c-5.21,5.38-10.51,9.24-15.89,11.51-5.47,2.35-11.29,3.73-17.42,4.14-7.56.51-13.79-.56-18.77-3.18-3.36-1.8-5.72-4.1-7.06-6.91-.49-1.07-.81-1.86-.94-2.39-.13-.55-.21-1.44-.21-2.69l-1.91-55.3c-.07-1.9-.42-3.55-1.11-4.98-.6-1.29-1.5-2.28-2.67-2.96-2.34-1.42-6.31-1.93-11.86-1.55l-.19-3.39,21.19-7.19c4.98-1.57,9.14-2.77,12.46-3.61,3.32-.81,6.02-1.3,8.11-1.43,6.04-.42,10.55,1.78,13.55,6.57.89,2.6,1.41,6.31,1.53,11.16-.05-2.69,5.35-4.03,7.03-4.92,6.19-3.27,5.23-18.01,1.73-23.06-.64-.93-1.02-1.69-1.59-2.74-1-1.76-2.69-3.83-4.2-5.06-2.2-1.76-4.47-2.72-6.96-3.12,15.45-.56,30.22,1.81,45.21,5.61-.74.68-1.86,1.85-2.04,2.02-.42.44-.83.9-1.22,1.4-.09.11-.16.25-.23.37-.5.84-1.1,1.57-1.55,2.42-.57,1-1.23,1.96-1.82,2.96-.26.44-.47.88-.71,1.35-.56,1.14-1.8,3.5.17,3.83,1.19.19,2.41-.39,3.55-.63,3.92-.86,7.75-2.28,11.8-2.54,8.54-.61,15.86,0,21.98,1.77,3.96,1.05,6.76,3.29,8.39,6.7,1.03,2.18,1.56,4.81,1.57,7.86l3.33,101.28c.06.63.17,1.11.31,1.4.33.67.96,1.15,1.93,1.39.7.74,2.15,1.02,4.34.87,1.12-.07,2.12-.26,3.07-.47v.15s9.3-.63,9.3-.63Z"/>
              </g>
            </g>
          </g>
        </g>
      </g>
    </g>
  </g>
  <g>
    <circle class="st30" cx="721.17" cy="517.06" r="22.15"/>
    <g>
      <text class="st3" transform="translate(706.59 522.75)"><tspan x="0" y="0">21</tspan></text>
      <text class="st2" transform="translate(727.96 522.57)"><tspan x="0" y="0">+</tspan></text>
    </g>
    <path class="st1" d="M721.17,495.51c-11.9,0-21.55,9.65-21.55,21.55s9.65,21.55,21.55,21.55,21.55-9.65,21.55-21.55-9.65-21.55-21.55-21.55ZM721.17,534.4c-9.58,0-17.34-7.77-17.34-17.34s7.77-17.34,17.34-17.34,17.34,7.77,17.34,17.34-7.77,17.34-17.34,17.34Z"/>
  </g>
</svg>