<?xml version="1.0" encoding="UTF-8"?>
<svg id="Layer_1" xmlns="http://www.w3.org/2000/svg" version="1.1" viewBox="0 0 1417.32 1417.32">
  <!-- Generator: Adobe Illustrator 29.6.0, SVG Export Plug-In . SVG Version: 2.1.1 Build 207)  -->
  <defs>
    <style>
      .st0 {
        fill: #fff;
      }

      .st1 {
        fill: #ed1a38;
      }

      .st2 {
        fill: #283a97;
      }

      .st3 {
        fill: #010101;
      }
    </style>
  </defs>
  <g>
    <circle class="st0" cx="708.66" cy="708.66" r="481.2"/>
    <path class="st3" d="M708.66,227.46c265.76,0,481.2,215.44,481.2,481.2s-215.44,481.2-481.2,481.2-481.2-215.44-481.2-481.2,215.44-481.2,481.2-481.2M708.66,209.02c-67.44,0-132.88,13.21-194.49,39.27-59.5,25.17-112.93,61.19-158.81,107.07-45.88,45.88-81.9,99.31-107.07,158.81-26.06,61.61-39.27,127.05-39.27,194.49s13.21,132.88,39.27,194.49c25.17,59.5,61.19,112.93,107.07,158.81,45.88,45.88,99.31,81.9,158.81,107.07,61.61,26.06,127.05,39.27,194.49,39.27s132.88-13.21,194.49-39.27c59.5-25.17,112.93-61.19,158.81-107.07,45.88-45.88,81.9-99.31,107.07-158.81,26.06-61.61,39.27-127.05,39.27-194.49s-13.21-132.88-39.27-194.49c-25.17-59.5-61.19-112.93-107.07-158.81-45.88-45.88-99.31-81.9-158.81-107.07-61.61-26.06-127.05-39.27-194.49-39.27h0Z"/>
  </g>
  <path class="st1" d="M297.83,530.41c55.52,18.81,120.86,31.6,180.46,31.6,150.94,0,307.84-55.82,463.3-55.82,67.93,0,129.73,7.64,177.69,24.23-71.08-163.06-232.19-269.32-410.23-269.32s-338.98,107.46-411.21,269.32Z"/>
  <path class="st2" d="M1119.52,887.46c-55.52-18.81-120.86-31.6-180.46-31.6-150.94,0-307.84,55.82-463.3,55.82-67.93,0-129.73-7.64-177.69-24.23,71.08,163.06,232.19,269.32,410.23,269.32s338.98-107.46,411.21-269.32Z"/>
  <path class="st3" d="M488.67,615.72h160.57v45.86h-96.95v23.72h76.22v44.11h-76.22v23.72h98.06v45.86h-161.67v-183.28ZM1057.44,799h64.82v-186.23l-64.36,22.79-.47,163.44ZM850.67,758.76c12.08,31.4,48.12,46.38,101.84,46.38s86.87-21.96,86.87-60.78c0-67.26-114.03-50.61-114.03-75.14,0-7.12,8.24-12.52,22.83-12.52,20.22,0,31.31,6.48,35.42,19.55l51.53-19.49c-6.47-25.62-32.28-45.18-88.83-45.18-47.64,0-82.83,20.57-82.83,58.28,0,70.17,114.03,52.09,114.03,77.98,0,7.83-8.1,12.52-25.39,12.52-25.97,0-43.34-6.46-50.37-20.86l-51.09,19.24ZM403.99,747l-45.71,17.09v34.92h-63.64v-183.25h99.13c51.51,0,77.19,22.12,77.19,61.38s-28.32,55.68-66.96,69.87ZM384.07,661.56h-25.79v54.98l24.09-9.74c15.42-5.78,24.09-12.6,24.09-26.8,0-11.68-8.23-18.43-22.39-18.43ZM785.25,747l-45.71,17.09v34.92h-63.64v-183.25h99.13c51.51,0,77.19,22.12,77.19,61.38s-28.32,55.68-66.96,69.87ZM765.33,661.56h-25.79v54.98l24.09-9.74c15.42-5.78,24.09-12.6,24.09-26.8,0-11.68-8.23-18.43-22.39-18.43Z"/>
</svg>