<?xml version="1.0" encoding="UTF-8"?>
<svg id="Layer_1" xmlns="http://www.w3.org/2000/svg" version="1.1" viewBox="0 0 4096 4096">
  <!-- Generator: Adobe Illustrator 29.6.0, SVG Export Plug-In . SVG Version: 2.1.1 Build 207)  -->
  <defs>
    <style>
      .st0 {
        fill: #36b24a;
      }

      .st1 {
        fill: #ee3a3f;
      }
    </style>
  </defs>
  <path class="st0" d="M2502.93,2467.05v-42.2c0-23.54,4.77-42.73,14.26-57.57,9.54-14.78,23.59-24.54,42.05-29.2v-50.49h53.06v50.17c18.98,4.46,33.19,14.21,42.68,29.25,9.44,15.1,14.15,34.6,14.15,58.46v122.84h-53.11v-124.46c0-16.46-2.46-28.42-7.5-35.86-4.93-7.5-12.58-11.27-23.02-11.27-9.86,0-17.2,3.72-22.07,11.17-4.93,7.44-7.34,19.5-7.34,36.28v42.89h-53.16Z"/>
  <path class="st0" d="M2765.59,2416.31c0,9.38,2.47,16.04,7.55,20.03,5.03,3.93,12.63,5.92,22.96,5.92h13.16v-22.28c0-19.66-7.18-29.52-21.39-29.52-7.03,0-12.48,2.15-16.41,6.4-3.93,4.25-5.87,10.75-5.87,19.45M2862.53,2442.27h70.99l12.63,65.85h-8.6c-10.38,0-19.24-2.46-26.53-7.39-7.34-4.88-12.11-11.53-14.47-19.92h-34.02v67.53h-53.27v-67.53h-17.93c-24.43,0-43.57-5.61-57.41-16.88-13.84-11.22-20.76-26.84-20.76-46.98,0-16.72,4.67-30.62,13.95-41.52,9.28-10.9,23.17-18.3,41.63-21.97,12.16-2.41,23.02-6.87,32.61-13.21,9.6-6.4,17.3-14.26,23.12-23.59,5.82-9.28,9.33-19.14,10.38-29.52h52.74c-.58,11.85-3.15,22.12-7.66,30.93-4.61,8.76-10.8,16.51-18.61,23.23-7.86,6.82-18.72,13.47-32.61,20.03,10.8,4.51,19.19,11.8,25.06,21.97,5.82,10.17,8.76,22.6,8.76,37.38v21.6Z"/>
  <path class="st0" d="M3061.77,2549.3c-27.84,0-49.13-6.34-63.96-19.14-14.84-12.74-22.28-31.25-22.28-55.52,0-11.59,1.94-22.18,5.87-31.88,3.93-9.75,10.01-19.5,18.24-29.46,8.23-9.96,22.55-23.75,42.99-41.52,11.38-9.8,19.71-21.13,25.01-33.97,5.35-12.95,7.97-30.04,7.97-51.27h53.69c0,26-4.46,48.76-13.37,68.26-8.86,19.5-22.39,36.54-40.63,51.27-16.15,12.53-27.95,24.12-35.44,34.81-7.5,10.7-11.22,21.91-11.22,33.76,0,10.07,3.04,18.24,9.02,24.59,6.03,6.29,14.1,9.44,24.12,9.44,11.9,0,20.92-3.72,27-11.22,6.08-7.5,9.12-18.45,9.12-32.77v-21.81h53.69v18.98c0,58.3-29.99,87.45-89.81,87.45"/>
  <path class="st0" d="M3213.33,2432.04c0-16.46,2.41-30.93,7.18-43.57-23.65-13.05-35.39-37.43-35.39-73.19v-27.63h52.74v29.1c0,19.45,2.99,32.24,8.96,38.43,13.32-8.97,30.2-13.47,50.65-13.47,26.9,0,47.34,7.86,61.29,23.49,14,15.62,20.97,38.17,20.97,67.53v34.34h-53.32v-36.02c0-16.41-2.46-28.42-7.5-35.86-4.93-7.5-12.58-11.22-23.02-11.22s-17.35,3.77-22.18,11.38c-4.88,7.6-7.24,19.61-7.24,36.02v116.97h-53.16v-116.28Z"/>
  <path class="st0" d="M3648.21,2326.48v53.9h12.95c18.56,0,27.89-9.38,27.89-28.1,0-8.65-2.46-15.1-7.39-19.4-4.93-4.25-11.74-6.4-20.5-6.4h-12.95ZM3483.38,2407.37c10.43,0,19.66-2.2,27.68-6.61v-74.29h-4.72c-10.28,0-19.03,2.15-26.21,6.5-7.18,4.3-12.69,10.12-16.51,17.41-3.72,7.34-5.66,15.31-5.66,24.06,0,10.33,2.31,18.4,6.92,24.17,4.61,5.82,10.8,8.76,18.51,8.76M3499.16,2446.64c-4.88.94-10.96,1.42-18.25,1.42-24.69,0-43.36-6.34-56.2-19.08-12.79-12.74-19.14-31.04-19.14-54.89,0-16.67,4.04-31.67,12.11-45.14,8.18-13.37,19.77-23.75,34.81-31.25,15.1-7.44,32.56-11.17,52.48-11.17h158.96c24.43,0,43.46,5.61,57.09,16.88,13.63,11.22,20.39,26.95,20.39,47.08,0,21.65-6.03,38.8-18.14,51.33-12.11,12.58-28.89,18.87-50.38,18.87h-77.86v-94.21h-30.83v94.21l-52.74,125.62h-54.79l42.47-99.67Z"/>
  <path class="st1" d="M1524.38,1584.13c-51.9-89.86-354.15-12.37-675.11,173.12-320.96,185.38-539.06,408.52-487.11,498.38,44.67,77.23,274.2,30.72,541.63-101.5,11.9-6.55,11.06-20.66-4.51-15.57-164.83,60.71-302.3,64.43-337.9,0-47.24-85.56,102.5-258.84,334.54-386.97,231.99-128.19,458.38-162.68,505.61-77.12,21.65,39.11,1.89,96.62-48.08,159.85l-.68.94c-18.51,22.96-5.03,29.88,8.18,18.72,127.92-113.4,194.61-215.74,163.42-269.85"/>
  <path class="st0" d="M1043.07,2175.59c-28.57-7.65-51.9-18.14-69.89-31.35l32.5-73.19c19.03,12.16,39.37,21.34,60.82,27.84,21.44,6.4,42.99,9.65,64.64,9.65s38.9-3.09,50.65-9.12c11.69-6.08,17.56-14.57,17.56-25.53,0-9.96-5.3-18.09-15.89-24.64-10.69-6.29-30.78-12.69-60.03-18.87-37.07-7.34-65.85-16.46-86.4-27.26-20.6-10.8-34.92-23.59-43.25-38.22-8.23-14.73-12.32-32.45-12.32-53.37,0-23.85,6.76-45.4,20.39-64.7,13.58-19.24,32.61-34.24,57.2-45.14,24.59-10.8,52.59-16.2,84.15-16.2,28.31,0,55.68,3.98,82.31,11.85,26.58,7.86,47.39,18.19,62.44,31.09l-31.93,73.19c-17.25-12.11-35.39-21.34-54.42-27.84-19.14-6.34-38.17-9.59-57.25-9.59s-33.76,3.57-45.19,10.7c-11.32,7.13-16.93,16.83-16.93,28.89,0,6.66,1.94,12.11,5.98,16.57,4.04,4.35,11.59,8.7,22.49,12.84,11.06,4.25,27.63,8.7,49.6,13.53,35.55,7.71,63.59,16.99,83.94,27.73,20.34,10.85,34.76,23.59,43.15,38.01,8.49,14.52,12.69,31.82,12.69,52.01,0,38.17-14.89,68.21-44.62,89.97-29.67,21.86-71.46,32.71-125.46,32.71-29.25,0-58.35-3.88-86.92-11.53"/>
  <path class="st0" d="M1656.53,1902.71v279.49h-97.99v-37.96c-7.97,13.21-19.71,23.59-35.18,31.04-15.41,7.55-32.3,11.38-50.59,11.38-23.91,0-45.14-5.87-63.86-17.62-18.61-11.8-33.29-28.52-43.78-50.38-10.43-21.76-15.68-46.98-15.68-75.65s5.35-54.63,16.04-77.02c10.59-22.44,25.22-39.85,43.88-52.32,18.77-12.37,39.9-18.66,63.39-18.66,18.3,0,35.13,3.93,50.33,11.85,15.26,7.86,27,18.4,35.44,31.61v-35.76h97.99ZM1544.29,2094.23c9.54-12.22,14.26-29.52,14.26-52.27s-4.72-40.84-14.26-53.11c-9.54-12.32-23.07-18.51-40.74-18.51s-30.78,6.34-40.74,18.98c-9.86,12.69-14.84,30.57-14.84,53.69s4.67,39.53,14.31,51.48c9.59,11.9,23.28,17.83,41.26,17.83s31.19-6.03,40.74-18.09"/>
  <path class="st0" d="M1711.94,1902.69v-7.65c0-37.85,9.91-67.37,29.46-88.66,19.61-21.29,48.18-31.93,85.51-31.93,21.34,0,38.64,2.62,51.8,7.76v76.44c-10.64-2.57-19.45-3.88-26.37-3.88-11.74,0-21.5,3.41-29.2,10.22-7.71,6.82-11.59,17.09-11.59,31.04v6.66h54.47v73.19h-54.47v206.36h-99.61v-279.55Z"/>
  <path class="st0" d="M2203.39,1902.71v279.49h-97.99v-37.96c-8.07,13.21-19.71,23.59-35.23,31.04-15.36,7.55-32.24,11.38-50.59,11.38-23.85,0-45.09-5.87-63.86-17.62-18.61-11.8-33.19-28.52-43.72-50.38-10.49-21.76-15.68-46.98-15.68-75.65s5.35-54.63,15.94-77.02c10.64-22.44,25.32-39.85,44.04-52.32,18.77-12.37,39.79-18.66,63.28-18.66,18.35,0,35.18,3.93,50.38,11.85,15.2,7.86,27.05,18.4,35.44,31.61v-35.76h97.99ZM2091.09,2094.23c9.59-12.22,14.31-29.52,14.31-52.27s-4.72-40.84-14.31-53.11c-9.54-12.32-23.02-18.51-40.68-18.51s-30.83,6.34-40.74,18.98c-9.8,12.69-14.84,30.57-14.84,53.69s4.77,39.53,14.31,51.48c9.54,11.9,23.28,17.83,41.26,17.83s31.14-6.03,40.68-18.09"/>
  <path class="st0" d="M2469.98,1902.13v90.8c-15.73-7.34-30.88-11.01-45.46-11.01-41.68,0-62.55,20.03-62.55,60.03v140.24h-99.19v-199.17c0-30.04-1.52-56.88-4.35-80.32h93.16l6.08,46.77c6.5-17.25,17.09-30.46,31.72-39.69,14.63-9.07,31.04-13.74,49.28-13.74,13.58,0,23.96,2.1,31.3,6.08"/>
  <rect class="st0" x="2503.78" y="1902.67" width="99.61" height="279.54"/>
  <path class="st0" d="M2690.37,2148.1c-26.69-25.69-40.11-60.71-40.11-105.07,0-29.36,6.45-55.26,19.45-77.59,13.05-22.33,31.3-39.69,54.79-52.01,23.49-12.27,50.59-18.4,81.47-18.4,20.45,0,40.68,2.99,60.55,9.02,19.71,6.08,35.49,14.26,47.24,24.54l-25.32,68.68c-9.8-8.02-21.44-14.42-34.55-19.19-13.32-4.77-25.9-7.18-38.06-7.18-20.55,0-36.33,5.92-47.29,17.62-11.06,11.69-16.57,29.2-16.57,52.32s5.51,41.16,16.57,53.16c10.96,11.85,26.95,17.77,47.87,17.77,12.06,0,24.64-2.41,37.7-7.13,13-4.77,24.54-11.17,34.34-19.24l25.32,67.58c-12.06,10.75-28.15,18.98-48.13,24.85-19.98,5.82-41.42,8.76-64.07,8.76-47.39,0-84.41-12.79-111.2-38.48"/>
  <path class="st0" d="M3005.71,2168.99c-23.17-11.69-40.95-28.57-53.37-50.59-12.53-22.07-18.77-47.92-18.77-77.59s6.24-55.52,18.77-77.65c12.43-21.97,30.2-38.8,53.37-50.54,23.12-11.8,50.23-17.62,81.47-17.62s57.62,5.92,80.53,17.88c22.96,11.9,40.63,28.78,53.06,50.65,12.53,21.76,18.77,47.5,18.77,77.28s-6.24,55.47-18.77,77.33c-12.43,21.81-30.09,38.69-53.06,50.59-22.91,11.95-49.75,17.88-80.53,17.88s-58.35-5.82-81.47-17.62M3141.13,2040.8c0-24.22-4.61-42.05-13.63-53.63-8.91-11.59-22.39-17.3-40.32-17.3s-32.14,5.71-41.31,17.3c-9.17,11.59-13.84,29.41-13.84,53.63s4.67,42.68,13.84,54.21c9.17,11.53,22.91,17.35,41.31,17.35,35.97,0,53.95-23.91,53.95-71.56"/>
  <path class="st0" d="M3718.11,1924.68c15.62,19.82,23.38,50.12,23.38,90.75v166.77h-99.56v-163.94c0-16.57-2.46-28.47-7.44-35.76-4.98-7.44-13.32-11.01-25.06-11.01-13.95,0-24.8,5.14-32.45,15.41-7.71,10.28-11.53,24.64-11.53,43.46v151.83h-99.61v-163.94c0-16.57-2.62-28.47-7.71-35.76-5.24-7.44-13.42-11.01-24.8-11.01-13.89,0-24.69,5.14-32.14,15.41-7.55,10.28-11.27,24.64-11.27,43.46v151.83h-99.72v-199.23c0-29.99-1.36-56.83-4.4-80.32h93.58l4.98,39.11c8.44-15.05,20.29-26.63,35.44-34.71,15.31-8.02,32.82-12.01,52.53-12.01,40.06,0,67.21,16.88,81.47,50.54,9.96-15.41,23.17-27.68,39.37-36.91,16.31-9.07,34.08-13.63,53.11-13.63,32.24,0,56.25,9.86,71.83,29.62"/>
  <rect class="st0" x="2503.78" y="1773.01" width="99.61" height="89.7"/>
</svg>